{
  "accessors": [
    {
      "bufferView": 3,
      "componentType": 5126,
      "count": 205,
      "max": [
        2.5001697540283203,
        3.7863035202026367,
        2.1337764263153076
      ],
      "min": [
        -2.1646568775177,
        1.7048230171203613,
        -2.368213653564453
      ],
      "type": "VEC3"
    },
    {
      "bufferView": 3,
      "byteOffset": 2460,
      "componentType": 5126,
      "count": 205,
      "max": [
        0.9420465230941772,
        0.9994337558746338,
        0.9845181107521057
      ],
      "min": [
        -0.9993500709533691,
        -0.6273759603500366,
        -0.9682106375694275
      ],
      "type": "VEC3"
    },
    {
      "bufferView": 2,
      "componentType": 5126,
      "count": 205,
      "max": [
        0.993575930595398,
        0.9962767958641052
      ],
      "min": [
        0.01428244449198246,
        0.0030212998390197754
      ],
      "type": "VEC2"
    },
    {
      "bufferView": 1,
      "componentType": 5125,
      "count": 621,
      "type": "SCALAR"
    },
    {
      "bufferView": 3,
      "byteOffset": 4920,
      "componentType": 5126,
      "count": 123,
      "max": [
        2.4408516883850098,
        4.515308856964111,
        1.965524673461914
      ],
      "min": [
        -2.062746047973633,
        2.73836612701416,
        -2.250507354736328
      ],
      "type": "VEC3"
    },
    {
      "bufferView": 3,
      "byteOffset": 6396,
      "componentType": 5126,
      "count": 123,
      "max": [
        0.8311053514480591,
        0.9894315004348755,
        0.9442874193191528
      ],
      "min": [
        -0.8552053570747375,
        0.27983346581459045,
        -0.6205171346664429
      ],
      "type": "VEC3"
    },
    {
      "bufferView": 4,
      "componentType": 5126,
      "count": 123,
      "max": [
        0.9994081258773804,
        0.7844578623771667,
        0.9343445301055908,
        1.0
      ],
      "min": [
        -0.31411200761795044,
        -0.6177815794944763,
        -0.6247068643569946,
        -1.0
      ],
      "type": "VEC4"
    },
    {
      "bufferView": 2,
      "byteOffset": 1640,
      "componentType": 5126,
      "count": 123,
      "max": [
        0.965178906917572,
        0.5580682158470154
      ],
      "min": [
        0.02200350910425186,
        0.025055289268493652
      ],
      "type": "VEC2"
    },
    {
      "bufferView": 1,
      "byteOffset": 2484,
      "componentType": 5125,
      "count": 288,
      "type": "SCALAR"
    },
    {
      "bufferView": 3,
      "byteOffset": 7872,
      "componentType": 5126,
      "count": 437,
      "max": [
        1.439017415046692,
        2.150376796722412,
        1.4390172958374023
      ],
      "min": [
        -1.43901789188385,
        -2.818106144085843e-16,
        -1.43901789188385
      ],
      "type": "VEC3"
    },
    {
      "bufferView": 3,
      "byteOffset": 13116,
      "componentType": 5126,
      "count": 437,
      "max": [
        0.9991568922996521,
        1.0,
        0.9991568922996521
      ],
      "min": [
        -0.9991568922996521,
        -1.0,
        -0.9991569519042969
      ],
      "type": "VEC3"
    },
    {
      "bufferView": 4,
      "byteOffset": 1968,
      "componentType": 5126,
      "count": 437,
      "max": [
        1.0,
        0.4035951793193817,
        0.9999977946281433,
        1.0
      ],
      "min": [
        -0.9999788999557495,
        -0.4035951495170593,
        -0.9999977946281433,
        1.0
      ],
      "type": "VEC4"
    },
    {
      "bufferView": 2,
      "byteOffset": 2624,
      "componentType": 5126,
      "count": 437,
      "max": [
        0.9963073134422302,
        0.8887465000152588
      ],
      "min": [
        0.0041199359111487865,
        0.013137996196746826
      ],
      "type": "VEC2"
    },
    {
      "bufferView": 1,
      "byteOffset": 3636,
      "componentType": 5125,
      "count": 1500,
      "type": "SCALAR"
    },
    {
      "bufferView": 3,
      "byteOffset": 18360,
      "componentType": 5126,
      "count": 192,
      "max": [
        1.9853873252868652,
        4.126625061035156,
        1.4573941230773926
      ],
      "min": [
        -1.5949187278747559,
        1.45082426071167,
        -1.8001048564910889
      ],
      "type": "VEC3"
    },
    {
      "bufferView": 3,
      "byteOffset": 20664,
      "componentType": 5126,
      "count": 192,
      "max": [
        0.9785338640213013,
        0.7651797533035278,
        0.9998466372489929
      ],
      "min": [
        -0.9888321161270142,
        -0.9997395277023315,
        -0.9940401911735535
      ],
      "type": "VEC3"
    },
    {
      "bufferView": 4,
      "byteOffset": 8960,
      "componentType": 5126,
      "count": 192,
      "max": [
        0.9994706511497498,
        0.8716207146644592,
        0.9856404066085815,
        1.0
      ],
      "min": [
        -0.9962544441223145,
        -0.6914836168289185,
        -0.9879505634307861,
        1.0
      ],
      "type": "VEC4"
    },
    {
      "bufferView": 2,
      "byteOffset": 6120,
      "componentType": 5126,
      "count": 192,
      "max": [
        0.993179202079773,
        0.991348147392273
      ],
      "min": [
        0.008377202786505222,
        0.006851315498352051
      ],
      "type": "VEC2"
    },
    {
      "bufferView": 1,
      "byteOffset": 9636,
      "componentType": 5125,
      "count": 813,
      "type": "SCALAR"
    },
    {
      "bufferView": 5,
      "componentType": 5126,
      "count": 2,
      "max": [
        1.0,
        0.0,
        0.0,
        0.0,
        0.0,
        1.0,
        6.123234262925839e-17,
        0.0,
        0.0,
        0.0,
        1.0,
        0.0,
        0.0,
        0.0,
        0.0,
        1.0
      ],
      "min": [
        1.0,
        0.0,
        0.0,
        0.0,
        0.0,
        1.0,
        0.0,
        0.0,
        0.0,
        -6.123234262925839e-17,
        1.0,
        0.0,
        0.0,
        0.0,
        0.0,
        1.0
      ],
      "type": "MAT4"
    },
    {
      "bufferView": 0,
      "componentType": 5123,
      "count": 205,
      "type": "VEC4"
    },
    {
      "bufferView": 4,
      "byteOffset": 12032,
      "componentType": 5126,
      "count": 205,
      "max": [
        1.0,
        0.0,
        0.0,
        0.0
      ],
      "min": [
        1.0,
        0.0,
        0.0,
        0.0
      ],
      "type": "VEC4"
    },
    {
      "bufferView": 0,
      "byteOffset": 1640,
      "componentType": 5123,
      "count": 123,
      "type": "VEC4"
    },
    {
      "bufferView": 4,
      "byteOffset": 15312,
      "componentType": 5126,
      "count": 123,
      "max": [
        1.0,
        0.0,
        0.0,
        0.0
      ],
      "min": [
        1.0,
        0.0,
        0.0,
        0.0
      ],
      "type": "VEC4"
    },
    {
      "bufferView": 0,
      "byteOffset": 2624,
      "componentType": 5123,
      "count": 437,
      "type": "VEC4"
    },
    {
      "bufferView": 4,
      "byteOffset": 17280,
      "componentType": 5126,
      "count": 437,
      "max": [
        1.0,
        0.0,
        0.0,
        0.0
      ],
      "min": [
        1.0,
        0.0,
        0.0,
        0.0
      ],
      "type": "VEC4"
    },
    {
      "bufferView": 0,
      "byteOffset": 6120,
      "componentType": 5123,
      "count": 192,
      "type": "VEC4"
    },
    {
      "bufferView": 4,
      "byteOffset": 24272,
      "componentType": 5126,
      "count": 192,
      "max": [
        1.0,
        0.0,
        0.0,
        0.0
      ],
      "min": [
        1.0,
        0.0,
        0.0,
        0.0
      ],
      "type": "VEC4"
    }
  ],
  "asset": {
    "extras": {
      "author": "StinkySkunk12 (https://sketchfab.com/Bearfnf)",
      "license": "SKETCHFAB Standard (https://sketchfab.com/licenses)",
      "source": "https://sketchfab.com/3d-models/broken-animal-crossing-winter-flowers-2715393ea31942b19bcfc5dec4fd1c68",
      "title": "BROKEN Animal Crossing Winter Flowers"
    },
    "generator": "Sketchfab-16.95.0",
    "version": "2.0"
  },
  "bufferViews": [
    {
      "buffer": 0,
      "byteLength": 7656,
      "byteStride": 8,
      "name": "shortBufferViews",
      "target": 34962
    },
    {
      "buffer": 0,
      "byteLength": 12888,
      "byteOffset": 7656,
      "name": "floatBufferViews",
      "target": 34963
    },
    {
      "buffer": 0,
      "byteLength": 7656,
      "byteOffset": 20544,
      "byteStride": 8,
      "name": "floatBufferViews",
      "target": 34962
    },
    {
      "buffer": 0,
      "byteLength": 22968,
      "byteOffset": 28200,
      "byteStride": 12,
      "name": "floatBufferViews",
      "target": 34962
    },
    {
      "buffer": 0,
      "byteLength": 27344,
      "byteOffset": 51168,
      "byteStride": 16,
      "name": "floatBufferViews",
      "target": 34962
    },
    {
      "buffer": 0,
      "byteLength": 128,
      "byteOffset": 78512,
      "name": "floatBufferViews"
    }
  ],
  "buffers": [
    {
      "byteLength": 78640,
      "uri": "scene.bin"
    }
  ],
  "extensionsUsed": [
    "KHR_materials_specular"
  ],
  "images": [
    {
      "uri": "textures/mPansyBody_baseColor.png"
    },
    {
      "uri": "textures/mPansyFlower_baseColor.png"
    },
    {
      "uri": "textures/mPansyFlower_normal.png"
    },
    {
      "uri": "textures/mPlanter_baseColor.png"
    },
    {
      "uri": "textures/mPlanter_normal.png"
    },
    {
      "uri": "textures/mPansyBody_0_normal.png"
    }
  ],
  "materials": [
    {
      "alphaMode": "BLEND",
      "doubleSided": true,
      "extensions": {
        "KHR_materials_specular": {
          "specularColorFactor": [
            1.0,
            1.0,
            1.0
          ],
          "specularFactor": 0.48000146286160106
        }
      },
      "name": "mPansyBody",
      "pbrMetallicRoughness": {
        "baseColorTexture": {
          "index": 0
        },
        "metallicFactor": 0.0,
        "roughnessFactor": 0.8929713596497552
      }
    },
    {
      "alphaMode": "BLEND",
      "doubleSided": true,
      "name": "mPansyFlower",
      "normalTexture": {
        "index": 2
      },
      "pbrMetallicRoughness": {
        "baseColorTexture": {
          "index": 1
        },
        "metallicFactor": 0.0,
        "roughnessFactor": 0.8929713596497552
      }
    },
    {
      "alphaMode": "BLEND",
      "doubleSided": true,
      "name": "mPlanter",
      "normalTexture": {
        "index": 4
      },
      "pbrMetallicRoughness": {
        "baseColorTexture": {
          "index": 3
        },
        "metallicFactor": 0.0,
        "roughnessFactor": 0.8929713596497552
      }
    },
    {
      "alphaMode": "BLEND",
      "doubleSided": true,
      "name": "mPansyBody_0",
      "normalTexture": {
        "index": 5
      },
      "pbrMetallicRoughness": {
        "baseColorTexture": {
          "index": 0
        },
        "metallicFactor": 0.0,
        "roughnessFactor": 0.8929713596497552
      }
    }
  ],
  "meshes": [
    {
      "name": "Leaf14__mPansyBody_mPansyBody_0",
      "primitives": [
        {
          "attributes": {
            "JOINTS_0": 20,
            "NORMAL": 1,
            "POSITION": 0,
            "TEXCOORD_0": 2,
            "TEXCOORD_1": 2,
            "TEXCOORD_2": 2,
            "WEIGHTS_0": 21
          },
          "indices": 3,
          "material": 0,
          "mode": 4
        }
      ]
    },
    {
      "name": "pCylinder1_1__mPansyFlower_mPansyFlower_0",
      "primitives": [
        {
          "attributes": {
            "JOINTS_0": 22,
            "NORMAL": 5,
            "POSITION": 4,
            "TANGENT": 6,
            "TEXCOORD_0": 7,
            "TEXCOORD_1": 7,
            "TEXCOORD_2": 7,
            "WEIGHTS_0": 23
          },
          "indices": 8,
          "material": 1,
          "mode": 4
        }
      ]
    },
    {
      "name": "pCylinder272__mPlanter_mPlanter_0",
      "primitives": [
        {
          "attributes": {
            "JOINTS_0": 24,
            "NORMAL": 10,
            "POSITION": 9,
            "TANGENT": 11,
            "TEXCOORD_0": 12,
            "TEXCOORD_1": 12,
            "TEXCOORD_2": 12,
            "WEIGHTS_0": 25
          },
          "indices": 13,
          "material": 2,
          "mode": 4
        }
      ]
    },
    {
      "name": "pCylinder28_1__mPansyBody_mPansyBody_0",
      "primitives": [
        {
          "attributes": {
            "JOINTS_0": 26,
            "NORMAL": 15,
            "POSITION": 14,
            "TANGENT": 16,
            "TEXCOORD_0": 17,
            "TEXCOORD_1": 17,
            "TEXCOORD_2": 17,
            "WEIGHTS_0": 27
          },
          "indices": 18,
          "material": 3,
          "mode": 4
        }
      ]
    }
  ],
  "nodes": [
    {
      "children": [
        1
      ],
      "matrix": [
        1.0,
        0.0,
        0.0,
        0.0,
        0.0,
        2.220446049250313e-16,
        -1.0,
        0.0,
        0.0,
        1.0,
        2.220446049250313e-16,
        0.0,
        0.0,
        0.0,
        0.0,
        1.0
      ],
      "name": "Sketchfab_model"
    },
    {
      "children": [
        2
      ],
      "matrix": [
        0.02539999969303608,
        0.0,
        0.0,
        0.0,
        0.0,
        0.0,
        0.02539999969303608,
        0.0,
        0.0,
        -0.02539999969303608,
        0.0,
        0.0,
        0.0,
        0.0,
        0.0,
        1.0
      ],
      "name": "IdrObjOfficeFlowerWinter.fbx"
    },
    {
      "children": [
        3
      ],
      "name": "RootNode"
    },
    {
      "children": [
        4,
        6,
        8,
        10,
        12,
        5,
        7,
        9,
        11
      ],
      "name": "Object_3"
    },
    {
      "children": [
        13
      ],
      "name": "_rootJoint"
    },
    {
      "matrix": [
        1.0,
        0.0,
        0.0,
        0.0,
        0.0,
        6.123233995736766e-17,
        -1.0,
        0.0,
        0.0,
        1.0,
        6.123233995736766e-17,
        0.0,
        0.0,
        0.0,
        0.0,
        1.0
      ],
      "name": "Object_5"
    },
    {
      "mesh": 0,
      "name": "Object_6",
      "skin": 0
    },
    {
      "matrix": [
        1.0,
        0.0,
        0.0,
        0.0,
        0.0,
        6.123233995736766e-17,
        -1.0,
        0.0,
        0.0,
        1.0,
        6.123233995736766e-17,
        0.0,
        0.0,
        0.0,
        0.0,
        1.0
      ],
      "name": "Object_7"
    },
    {
      "mesh": 1,
      "name": "Object_8",
      "skin": 0
    },
    {
      "matrix": [
        1.0,
        0.0,
        0.0,
        0.0,
        0.0,
        6.123233995736766e-17,
        -1.0,
        0.0,
        0.0,
        1.0,
        6.123233995736766e-17,
        0.0,
        0.0,
        0.0,
        0.0,
        1.0
      ],
      "name": "Object_9"
    },
    {
      "mesh": 2,
      "name": "Object_10",
      "skin": 0
    },
    {
      "matrix": [
        1.0,
        0.0,
        0.0,
        0.0,
        0.0,
        6.123233995736766e-17,
        -1.0,
        0.0,
        0.0,
        1.0,
        6.123233995736766e-17,
        0.0,
        0.0,
        0.0,
        0.0,
        1.0
      ],
      "name": "Object_11"
    },
    {
      "mesh": 3,
      "name": "Object_12",
      "skin": 0
    },
    {
      "name": "Root_00"
    }
  ],
  "samplers": [
    {
      "magFilter": 9729,
      "minFilter": 9987,
      "wrapS": 10497,
      "wrapT": 10497
    }
  ],
  "scene": 0,
  "scenes": [
    {
      "name": "Sketchfab_Scene",
      "nodes": [
        0
      ]
    }
  ],
  "skins": [
    {
      "inverseBindMatrices": 19,
      "joints": [
        4,
        13
      ],
      "skeleton": 4
    }
  ],
  "textures": [
    {
      "sampler": 0,
      "source": 0
    },
    {
      "sampler": 0,
      "source": 1
    },
    {
      "sampler": 0,
      "source": 2
    },
    {
      "sampler": 0,
      "source": 3
    },
    {
      "sampler": 0,
      "source": 4
    },
    {
      "sampler": 0,
      "source": 5
    }
  ]
}
