{
  "accessors": [
    {
      "bufferView": 3,
      "componentType": 5126,
      "count": 912,
      "max": [
        13.704400062561035,
        31.744121551513672,
        7.763038635253906
      ],
      "min": [
        -12.616129875183105,
        8.913516998291016,
        -8.848424911499023
      ],
      "type": "VEC3"
    },
    {
      "bufferView": 3,
      "byteOffset": 10944,
      "componentType": 5126,
      "count": 912,
      "max": [
        0.7781487107276917,
        0.9931536912918091,
        0.9992392659187317
      ],
      "min": [
        -0.7456672191619873,
        -0.3129766285419464,
        -0.40168166160583496
      ],
      "type": "VEC3"
    },
    {
      "bufferView": 4,
      "componentType": 5126,
      "count": 912,
      "max": [
        0.999940812587738,
        0.5322456955909729,
        0.9927247166633606,
        1.0
      ],
      "min": [
        -0.9839510321617126,
        -0.5897535681724548,
        -0.9870410561561584,
        1.0
      ],
      "type": "VEC4"
    },
    {
      "bufferView": 4,
      "byteOffset": 14592,
      "componentType": 5126,
      "count": 912,
      "max": [
        1.0,
        1.0,
        1.0,
        1.0
      ],
      "min": [
        0.0,
        1.0,
        0.0,
        0.0
      ],
      "type": "VEC4"
    },
    {
      "bufferView": 2,
      "componentType": 5126,
      "count": 912,
      "max": [
        1.0009765625,
        0.9963207244873047
      ],
      "min": [
        -0.0004963874816894531,
        0.0087890625
      ],
      "type": "VEC2"
    },
    {
      "bufferView": 2,
      "byteOffset": 7296,
      "componentType": 5126,
      "count": 912,
      "max": [
        0.04583810269832611,
        0.07612723112106323
      ],
      "min": [
        0.0019684138242155313,
        0.0019989609718322754
      ],
      "type": "VEC2"
    },
    {
      "bufferView": 1,
      "componentType": 5125,
      "count": 1824,
      "type": "SCALAR"
    },
    {
      "bufferView": 3,
      "byteOffset": 21888,
      "componentType": 5126,
      "count": 160,
      "max": [
        13.225944519042969,
        30.26323127746582,
        6.352947235107422
      ],
      "min": [
        -13.005868911743164,
        8.548330307006836,
        -6.160968780517578
      ],
      "type": "VEC3"
    },
    {
      "bufferView": 3,
      "byteOffset": 23808,
      "componentType": 5126,
      "count": 160,
      "max": [
        0.6422408223152161,
        0.9374198913574219,
        0.9975815415382385
      ],
      "min": [
        -0.5630651712417603,
        0.027463054284453392,
        0.3225249648094177
      ],
      "type": "VEC3"
    },
    {
      "bufferView": 4,
      "byteOffset": 29184,
      "componentType": 5126,
      "count": 160,
      "max": [
        0.9945693612098694,
        0.6145173907279968,
        0.5595526695251465,
        1.0
      ],
      "min": [
        0.36484014987945557,
        -0.2754571735858917,
        -0.8793577551841736,
        1.0
      ],
      "type": "VEC4"
    },
    {
      "bufferView": 4,
      "byteOffset": 31744,
      "componentType": 5126,
      "count": 160,
      "max": [
        1.0,
        1.0,
        1.0,
        1.0
      ],
      "min": [
        0.0,
        1.0,
        0.0,
        0.0
      ],
      "type": "VEC4"
    },
    {
      "bufferView": 2,
      "byteOffset": 14592,
      "componentType": 5126,
      "count": 160,
      "max": [
        0.982970654964447,
        1.0020447969436646
      ],
      "min": [
        0.004028443247079849,
        0.01687675714492798
      ],
      "type": "VEC2"
    },
    {
      "bufferView": 2,
      "byteOffset": 15872,
      "componentType": 5126,
      "count": 160,
      "max": [
        0.09307861328125,
        0.076171875
      ],
      "min": [
        -0.04376220703125,
        -0.0751953125
      ],
      "type": "VEC2"
    },
    {
      "bufferView": 1,
      "byteOffset": 7296,
      "componentType": 5125,
      "count": 336,
      "type": "SCALAR"
    },
    {
      "bufferView": 3,
      "byteOffset": 25728,
      "componentType": 5126,
      "count": 485,
      "max": [
        6.760794639587402,
        20.2353515625,
        5.628140449523926
      ],
      "min": [
        -6.873838424682617,
        -1.4154739379882813,
        -6.775469779968262
      ],
      "type": "VEC3"
    },
    {
      "bufferView": 3,
      "byteOffset": 31548,
      "componentType": 5126,
      "count": 485,
      "max": [
        0.9991549253463745,
        0.9978967905044556,
        0.998218834400177
      ],
      "min": [
        -0.9999979734420776,
        -0.752252995967865,
        -0.9946049451828003
      ],
      "type": "VEC3"
    },
    {
      "bufferView": 4,
      "byteOffset": 34304,
      "componentType": 5126,
      "count": 485,
      "max": [
        1.0,
        0.987822949886322,
        1.0,
        1.0
      ],
      "min": [
        -0.9997872114181519,
        -0.9893841743469238,
        -1.0,
        -1.0
      ],
      "type": "VEC4"
    },
    {
      "bufferView": 4,
      "byteOffset": 42064,
      "componentType": 5126,
      "count": 485,
      "max": [
        1.0,
        1.0,
        1.0,
        1.0
      ],
      "min": [
        1.0,
        1.0,
        1.0,
        1.0
      ],
      "type": "VEC4"
    },
    {
      "bufferView": 2,
      "byteOffset": 17152,
      "componentType": 5126,
      "count": 485,
      "max": [
        0.999969482421875,
        0.860621988773346
      ],
      "min": [
        -0.0028992583975195885,
        0.00030517578125
      ],
      "type": "VEC2"
    },
    {
      "bufferView": 1,
      "byteOffset": 8640,
      "componentType": 5125,
      "count": 2331,
      "type": "SCALAR"
    },
    {
      "bufferView": 5,
      "componentType": 5126,
      "count": 2,
      "max": [
        1.0,
        0.0,
        0.0,
        0.0,
        0.0,
        1.0,
        6.123234262925839e-17,
        0.0,
        0.0,
        0.0,
        1.0,
        0.0,
        0.0,
        0.0,
        0.0,
        1.0
      ],
      "min": [
        1.0,
        0.0,
        0.0,
        0.0,
        0.0,
        1.0,
        0.0,
        0.0,
        0.0,
        -6.123234262925839e-17,
        1.0,
        0.0,
        0.0,
        0.0,
        0.0,
        1.0
      ],
      "type": "MAT4"
    },
    {
      "bufferView": 0,
      "componentType": 5123,
      "count": 912,
      "type": "VEC4"
    },
    {
      "bufferView": 4,
      "byteOffset": 49824,
      "componentType": 5126,
      "count": 912,
      "max": [
        1.0,
        0.0,
        0.0,
        0.0
      ],
      "min": [
        1.0,
        0.0,
        0.0,
        0.0
      ],
      "type": "VEC4"
    },
    {
      "bufferView": 0,
      "byteOffset": 7296,
      "componentType": 5123,
      "count": 160,
      "type": "VEC4"
    },
    {
      "bufferView": 4,
      "byteOffset": 64416,
      "componentType": 5126,
      "count": 160,
      "max": [
        1.0,
        0.0,
        0.0,
        0.0
      ],
      "min": [
        1.0,
        0.0,
        0.0,
        0.0
      ],
      "type": "VEC4"
    },
    {
      "bufferView": 0,
      "byteOffset": 8576,
      "componentType": 5123,
      "count": 485,
      "type": "VEC4"
    },
    {
      "bufferView": 4,
      "byteOffset": 66976,
      "componentType": 5126,
      "count": 485,
      "max": [
        1.0,
        0.0,
        0.0,
        0.0
      ],
      "min": [
        1.0,
        0.0,
        0.0,
        0.0
      ],
      "type": "VEC4"
    }
  ],
  "asset": {
    "extras": {
      "author": "StinkySkunk12 (https://sketchfab.com/Bearfnf)",
      "license": "SKETCHFAB Standard (https://sketchfab.com/licenses)",
      "source": "https://sketchfab.com/3d-models/animal-crossing-oak-trees-background-000e7c0bf7ab48b8a8430171fa5bbb47",
      "title": "Animal Crossing Oak Trees (Background)"
    },
    "generator": "Sketchfab-16.95.0",
    "version": "2.0"
  },
  "bufferViews": [
    {
      "buffer": 0,
      "byteLength": 12456,
      "byteStride": 8,
      "name": "shortBufferViews",
      "target": 34962
    },
    {
      "buffer": 0,
      "byteLength": 17964,
      "byteOffset": 12456,
      "name": "floatBufferViews",
      "target": 34963
    },
    {
      "buffer": 0,
      "byteLength": 21032,
      "byteOffset": 30420,
      "byteStride": 8,
      "name": "floatBufferViews",
      "target": 34962
    },
    {
      "buffer": 0,
      "byteLength": 37368,
      "byteOffset": 51452,
      "byteStride": 12,
      "name": "floatBufferViews",
      "target": 34962
    },
    {
      "buffer": 0,
      "byteLength": 74736,
      "byteOffset": 88820,
      "byteStride": 16,
      "name": "floatBufferViews",
      "target": 34962
    },
    {
      "buffer": 0,
      "byteLength": 128,
      "byteOffset": 163556,
      "name": "floatBufferViews"
    }
  ],
  "buffers": [
    {
      "byteLength": 163684,
      "uri": "scene.bin"
    }
  ],
  "images": [
    {
      "uri": "textures/mIdrTreeOakLeaf_baseColor.png"
    },
    {
      "uri": "textures/mIdrTreeOakLeaf_normal.png"
    },
    {
      "uri": "textures/mIdrTreeOakLeafBack_baseColor.png"
    },
    {
      "uri": "textures/mIdrTreeOakLeafBack_normal.png"
    },
    {
      "uri": "textures/mIdrTreeOakTrunk00_baseColor.png"
    },
    {
      "uri": "textures/mIdrTreeOakTrunk00_normal.png"
    }
  ],
  "materials": [
    {
      "alphaMode": "BLEND",
      "doubleSided": true,
      "name": "mIdrTreeOakLeaf",
      "normalTexture": {
        "index": 1
      },
      "pbrMetallicRoughness": {
        "baseColorTexture": {
          "index": 0
        },
        "metallicFactor": 0.0,
        "roughnessFactor": 0.8929713596497552
      }
    },
    {
      "doubleSided": true,
      "name": "mIdrTreeOakLeafBack",
      "normalTexture": {
        "index": 3
      },
      "pbrMetallicRoughness": {
        "baseColorTexture": {
          "index": 2
        },
        "metallicFactor": 0.0,
        "roughnessFactor": 0.8929713596497552
      }
    },
    {
      "doubleSided": true,
      "name": "mIdrTreeOakTrunk00",
      "normalTexture": {
        "index": 5
      },
      "pbrMetallicRoughness": {
        "baseColorTexture": {
          "index": 4
        },
        "metallicFactor": 0.0,
        "roughnessFactor": 0.8929713596497552
      }
    }
  ],
  "meshes": [
    {
      "name": "L01_01__mIdrTreeOakLeaf_mIdrTreeOakLeaf_0",
      "primitives": [
        {
          "attributes": {
            "COLOR_0": 3,
            "JOINTS_0": 21,
            "NORMAL": 1,
            "POSITION": 0,
            "TANGENT": 2,
            "TEXCOORD_0": 4,
            "TEXCOORD_1": 4,
            "TEXCOORD_2": 5,
            "TEXCOORD_3": 4,
            "WEIGHTS_0": 22
          },
          "indices": 6,
          "material": 0,
          "mode": 4
        }
      ]
    },
    {
      "name": "LB014__mIdrTreeOakLeafBack_mIdrTreeOakLeafBack_0",
      "primitives": [
        {
          "attributes": {
            "COLOR_0": 10,
            "JOINTS_0": 23,
            "NORMAL": 8,
            "POSITION": 7,
            "TANGENT": 9,
            "TEXCOORD_0": 11,
            "TEXCOORD_1": 11,
            "TEXCOORD_2": 12,
            "TEXCOORD_3": 11,
            "WEIGHTS_0": 24
          },
          "indices": 13,
          "material": 1,
          "mode": 4
        }
      ]
    },
    {
      "name": "group68_TrunkBottom__mIdrTreeOakTrunk00_mIdrTreeOakTrunk00_0",
      "primitives": [
        {
          "attributes": {
            "COLOR_0": 17,
            "JOINTS_0": 25,
            "NORMAL": 15,
            "POSITION": 14,
            "TANGENT": 16,
            "TEXCOORD_0": 18,
            "TEXCOORD_1": 18,
            "TEXCOORD_2": 18,
            "WEIGHTS_0": 26
          },
          "indices": 19,
          "material": 2,
          "mode": 4
        }
      ]
    }
  ],
  "nodes": [
    {
      "children": [
        1
      ],
      "matrix": [
        1.0,
        0.0,
        0.0,
        0.0,
        0.0,
        2.220446049250313e-16,
        -1.0,
        0.0,
        0.0,
        1.0,
        2.220446049250313e-16,
        0.0,
        0.0,
        0.0,
        0.0,
        1.0
      ],
      "name": "Sketchfab_model"
    },
    {
      "children": [
        2
      ],
      "matrix": [
        0.02539999969303608,
        0.0,
        0.0,
        0.0,
        0.0,
        0.0,
        0.02539999969303608,
        0.0,
        0.0,
        -0.02539999969303608,
        0.0,
        0.0,
        0.0,
        0.0,
        0.0,
        1.0
      ],
      "name": "IdrObjTreeOak00.fbx"
    },
    {
      "children": [
        3
      ],
      "name": "RootNode"
    },
    {
      "children": [
        4,
        6,
        8,
        10,
        5,
        7,
        9
      ],
      "name": "Object_3"
    },
    {
      "children": [
        11
      ],
      "name": "_rootJoint"
    },
    {
      "matrix": [
        1.0,
        0.0,
        0.0,
        0.0,
        0.0,
        6.123233995736766e-17,
        -1.0,
        0.0,
        0.0,
        1.0,
        6.123233995736766e-17,
        0.0,
        0.0,
        0.0,
        0.0,
        1.0
      ],
      "name": "Object_5"
    },
    {
      "mesh": 0,
      "name": "Object_6",
      "skin": 0
    },
    {
      "matrix": [
        1.0,
        0.0,
        0.0,
        0.0,
        0.0,
        6.123233995736766e-17,
        -1.0,
        0.0,
        0.0,
        1.0,
        6.123233995736766e-17,
        0.0,
        0.0,
        0.0,
        0.0,
        1.0
      ],
      "name": "Object_7"
    },
    {
      "mesh": 1,
      "name": "Object_8",
      "skin": 0
    },
    {
      "matrix": [
        1.0,
        0.0,
        0.0,
        0.0,
        0.0,
        6.123233995736766e-17,
        -1.0,
        0.0,
        0.0,
        1.0,
        6.123233995736766e-17,
        0.0,
        0.0,
        0.0,
        0.0,
        1.0
      ],
      "name": "Object_9"
    },
    {
      "mesh": 2,
      "name": "Object_10",
      "skin": 0
    },
    {
      "name": "Root_00"
    }
  ],
  "samplers": [
    {
      "magFilter": 9729,
      "minFilter": 9987,
      "wrapS": 10497,
      "wrapT": 10497
    }
  ],
  "scene": 0,
  "scenes": [
    {
      "name": "Sketchfab_Scene",
      "nodes": [
        0
      ]
    }
  ],
  "skins": [
    {
      "inverseBindMatrices": 20,
      "joints": [
        4,
        11
      ],
      "skeleton": 4
    }
  ],
  "textures": [
    {
      "sampler": 0,
      "source": 0
    },
    {
      "sampler": 0,
      "source": 1
    },
    {
      "sampler": 0,
      "source": 2
    },
    {
      "sampler": 0,
      "source": 3
    },
    {
      "sampler": 0,
      "source": 4
    },
    {
      "sampler": 0,
      "source": 5
    }
  ]
}
