{
  "accessors": [
    {
      "bufferView": 3,
      "componentType": 5126,
      "count": 445,
      "max": [
        2.498117446899414,
        5.862851142883301,
        2.264880895614624
      ],
      "min": [
        -2.2407965660095215,
        3.207559585571289,
        -2.0753321647644043
      ],
      "type": "VEC3"
    },
    {
      "bufferView": 3,
      "byteOffset": 5340,
      "componentType": 5126,
      "count": 445,
      "max": [
        0.9843912124633789,
        0.9961291551589966,
        0.9992560744285583
      ],
      "min": [
        -0.9853066802024841,
        -0.9960989356040955,
        -0.9406495094299316
      ],
      "type": "VEC3"
    },
    {
      "bufferView": 4,
      "componentType": 5126,
      "count": 445,
      "max": [
        0.9998387098312378,
        0.9918404221534729,
        0.9898183345794678,
        1.0
      ],
      "min": [
        -0.9913156032562256,
        -0.9847660660743713,
        -0.9840297102928162,
        1.0
      ],
      "type": "VEC4"
    },
    {
      "bufferView": 2,
      "componentType": 5126,
      "count": 445,
      "max": [
        0.9948882460594177,
        0.9994964599609375
      ],
      "min": [
        0.0005951018538326025,
        0.006851315498352051
      ],
      "type": "VEC2"
    },
    {
      "bufferView": 1,
      "componentType": 5125,
      "count": 1740,
      "type": "SCALAR"
    },
    {
      "bufferView": 3,
      "byteOffset": 10680,
      "componentType": 5126,
      "count": 273,
      "max": [
        2.2469475269317627,
        4.402218818664551,
        1.2194509506225586
      ],
      "min": [
        -2.047562837600708,
        1.7300382852554321,
        -2.029463768005371
      ],
      "type": "VEC3"
    },
    {
      "bufferView": 3,
      "byteOffset": 13956,
      "componentType": 5126,
      "count": 273,
      "max": [
        0.9994858503341675,
        0.9969272017478943,
        0.9981099367141724
      ],
      "min": [
        -0.9963114261627197,
        -0.7744674682617188,
        -0.9987835884094238
      ],
      "type": "VEC3"
    },
    {
      "bufferView": 4,
      "byteOffset": 7120,
      "componentType": 5126,
      "count": 273,
      "max": [
        0.9988237023353577,
        0.9894056916236877,
        0.9507173299789429,
        1.0
      ],
      "min": [
        -0.8718695640563965,
        -0.996774435043335,
        -0.8494857549667358,
        -1.0
      ],
      "type": "VEC4"
    },
    {
      "bufferView": 2,
      "byteOffset": 3560,
      "componentType": 5126,
      "count": 273,
      "max": [
        0.9979857802391052,
        0.9970244765281677
      ],
      "min": [
        0.0041199359111487865,
        0.0027771592140197754
      ],
      "type": "VEC2"
    },
    {
      "bufferView": 1,
      "byteOffset": 6960,
      "componentType": 5125,
      "count": 753,
      "type": "SCALAR"
    },
    {
      "bufferView": 3,
      "byteOffset": 17232,
      "componentType": 5126,
      "count": 437,
      "max": [
        1.439017415046692,
        2.150376796722412,
        1.4390172958374023
      ],
      "min": [
        -1.43901789188385,
        -2.818106144085843e-16,
        -1.43901789188385
      ],
      "type": "VEC3"
    },
    {
      "bufferView": 3,
      "byteOffset": 22476,
      "componentType": 5126,
      "count": 437,
      "max": [
        0.9991568922996521,
        1.0,
        0.9991568922996521
      ],
      "min": [
        -0.9991568922996521,
        -1.0,
        -0.9991569519042969
      ],
      "type": "VEC3"
    },
    {
      "bufferView": 4,
      "byteOffset": 11488,
      "componentType": 5126,
      "count": 437,
      "max": [
        1.0,
        0.4035951793193817,
        0.9999977946281433,
        1.0
      ],
      "min": [
        -0.9999788999557495,
        -0.4035951495170593,
        -0.9999977946281433,
        1.0
      ],
      "type": "VEC4"
    },
    {
      "bufferView": 2,
      "byteOffset": 5744,
      "componentType": 5126,
      "count": 437,
      "max": [
        0.9963073134422302,
        0.8887465000152588
      ],
      "min": [
        0.0041199359111487865,
        0.013137996196746826
      ],
      "type": "VEC2"
    },
    {
      "bufferView": 1,
      "byteOffset": 9972,
      "componentType": 5125,
      "count": 1500,
      "type": "SCALAR"
    },
    {
      "bufferView": 5,
      "componentType": 5126,
      "count": 2,
      "max": [
        1.0,
        0.0,
        0.0,
        0.0,
        0.0,
        1.0,
        6.123234262925839e-17,
        0.0,
        0.0,
        0.0,
        1.0,
        0.0,
        0.0,
        0.0,
        0.0,
        1.0
      ],
      "min": [
        1.0,
        0.0,
        0.0,
        0.0,
        0.0,
        1.0,
        0.0,
        0.0,
        0.0,
        -6.123234262925839e-17,
        1.0,
        0.0,
        0.0,
        0.0,
        0.0,
        1.0
      ],
      "type": "MAT4"
    },
    {
      "bufferView": 0,
      "componentType": 5123,
      "count": 445,
      "type": "VEC4"
    },
    {
      "bufferView": 4,
      "byteOffset": 18480,
      "componentType": 5126,
      "count": 445,
      "max": [
        1.0,
        0.0,
        0.0,
        0.0
      ],
      "min": [
        1.0,
        0.0,
        0.0,
        0.0
      ],
      "type": "VEC4"
    },
    {
      "bufferView": 0,
      "byteOffset": 3560,
      "componentType": 5123,
      "count": 273,
      "type": "VEC4"
    },
    {
      "bufferView": 4,
      "byteOffset": 25600,
      "componentType": 5126,
      "count": 273,
      "max": [
        1.0,
        0.0,
        0.0,
        0.0
      ],
      "min": [
        1.0,
        0.0,
        0.0,
        0.0
      ],
      "type": "VEC4"
    },
    {
      "bufferView": 0,
      "byteOffset": 5744,
      "componentType": 5123,
      "count": 437,
      "type": "VEC4"
    },
    {
      "bufferView": 4,
      "byteOffset": 29968,
      "componentType": 5126,
      "count": 437,
      "max": [
        1.0,
        0.0,
        0.0,
        0.0
      ],
      "min": [
        1.0,
        0.0,
        0.0,
        0.0
      ],
      "type": "VEC4"
    }
  ],
  "asset": {
    "extras": {
      "author": "StinkySkunk12 (https://sketchfab.com/Bearfnf)",
      "license": "SKETCHFAB Standard (https://sketchfab.com/licenses)",
      "source": "https://sketchfab.com/3d-models/animal-crossing-new-horizons-summer-flowers-161806d75967444ca5e108df65c85d80",
      "title": "Animal Crossing New Horizons Summer Flowers"
    },
    "generator": "Sketchfab-16.95.0",
    "version": "2.0"
  },
  "bufferViews": [
    {
      "buffer": 0,
      "byteLength": 9240,
      "byteStride": 8,
      "name": "shortBufferViews",
      "target": 34962
    },
    {
      "buffer": 0,
      "byteLength": 15972,
      "byteOffset": 9240,
      "name": "floatBufferViews",
      "target": 34963
    },
    {
      "buffer": 0,
      "byteLength": 9240,
      "byteOffset": 25212,
      "byteStride": 8,
      "name": "floatBufferViews",
      "target": 34962
    },
    {
      "buffer": 0,
      "byteLength": 27720,
      "byteOffset": 34452,
      "byteStride": 12,
      "name": "floatBufferViews",
      "target": 34962
    },
    {
      "buffer": 0,
      "byteLength": 36960,
      "byteOffset": 62172,
      "byteStride": 16,
      "name": "floatBufferViews",
      "target": 34962
    },
    {
      "buffer": 0,
      "byteLength": 128,
      "byteOffset": 99132,
      "name": "floatBufferViews"
    }
  ],
  "buffers": [
    {
      "byteLength": 99260,
      "uri": "scene.bin"
    }
  ],
  "images": [
    {
      "uri": "textures/mRosePetal_baseColor.png"
    },
    {
      "uri": "textures/mRosePetal_normal.png"
    },
    {
      "uri": "textures/mRoseLeaf_baseColor.png"
    },
    {
      "uri": "textures/mRoseLeaf_normal.png"
    },
    {
      "uri": "textures/mPlanter_baseColor.png"
    },
    {
      "uri": "textures/mPlanter_normal.png"
    }
  ],
  "materials": [
    {
      "alphaMode": "BLEND",
      "doubleSided": true,
      "name": "mRosePetal",
      "normalTexture": {
        "index": 1
      },
      "pbrMetallicRoughness": {
        "baseColorTexture": {
          "index": 0
        },
        "metallicFactor": 0.0,
        "roughnessFactor": 0.8929713596497552
      }
    },
    {
      "alphaMode": "BLEND",
      "doubleSided": true,
      "name": "mRoseLeaf",
      "normalTexture": {
        "index": 3
      },
      "pbrMetallicRoughness": {
        "baseColorTexture": {
          "index": 2
        },
        "metallicFactor": 0.0,
        "roughnessFactor": 0.8929713596497552
      }
    },
    {
      "alphaMode": "BLEND",
      "doubleSided": true,
      "name": "mPlanter",
      "normalTexture": {
        "index": 5
      },
      "pbrMetallicRoughness": {
        "baseColorTexture": {
          "index": 4
        },
        "metallicFactor": 0.0,
        "roughnessFactor": 0.8929713596497552
      }
    }
  ],
  "meshes": [
    {
      "name": "RosePetal18_1__mRosePetal_mRosePetal_0",
      "primitives": [
        {
          "attributes": {
            "JOINTS_0": 16,
            "NORMAL": 1,
            "POSITION": 0,
            "TANGENT": 2,
            "TEXCOORD_0": 3,
            "TEXCOORD_1": 3,
            "TEXCOORD_2": 3,
            "WEIGHTS_0": 17
          },
          "indices": 4,
          "material": 0,
          "mode": 4
        }
      ]
    },
    {
      "name": "calyx1__mRoseLeaf_mRoseLeaf_0",
      "primitives": [
        {
          "attributes": {
            "JOINTS_0": 18,
            "NORMAL": 6,
            "POSITION": 5,
            "TANGENT": 7,
            "TEXCOORD_0": 8,
            "TEXCOORD_1": 8,
            "TEXCOORD_2": 8,
            "WEIGHTS_0": 19
          },
          "indices": 9,
          "material": 1,
          "mode": 4
        }
      ]
    },
    {
      "name": "pCylinder272__mPlanter_mPlanter_0",
      "primitives": [
        {
          "attributes": {
            "JOINTS_0": 20,
            "NORMAL": 11,
            "POSITION": 10,
            "TANGENT": 12,
            "TEXCOORD_0": 13,
            "TEXCOORD_1": 13,
            "TEXCOORD_2": 13,
            "WEIGHTS_0": 21
          },
          "indices": 14,
          "material": 2,
          "mode": 4
        }
      ]
    }
  ],
  "nodes": [
    {
      "children": [
        1
      ],
      "matrix": [
        1.0,
        0.0,
        0.0,
        0.0,
        0.0,
        2.220446049250313e-16,
        -1.0,
        0.0,
        0.0,
        1.0,
        2.220446049250313e-16,
        0.0,
        0.0,
        0.0,
        0.0,
        1.0
      ],
      "name": "Sketchfab_model"
    },
    {
      "children": [
        2
      ],
      "matrix": [
        0.02539999969303608,
        0.0,
        0.0,
        0.0,
        0.0,
        0.0,
        0.02539999969303608,
        0.0,
        0.0,
        -0.02539999969303608,
        0.0,
        0.0,
        0.0,
        0.0,
        0.0,
        1.0
      ],
      "name": "IdrObjOfficeFlowerSummer.fbx"
    },
    {
      "children": [
        3
      ],
      "name": "RootNode"
    },
    {
      "children": [
        4,
        6,
        8,
        10,
        5,
        7,
        9
      ],
      "name": "Object_3"
    },
    {
      "children": [
        11
      ],
      "name": "_rootJoint"
    },
    {
      "matrix": [
        1.0,
        0.0,
        0.0,
        0.0,
        0.0,
        6.123233995736766e-17,
        -1.0,
        0.0,
        0.0,
        1.0,
        6.123233995736766e-17,
        0.0,
        0.0,
        0.0,
        0.0,
        1.0
      ],
      "name": "Object_5"
    },
    {
      "mesh": 0,
      "name": "Object_6",
      "skin": 0
    },
    {
      "matrix": [
        1.0,
        0.0,
        0.0,
        0.0,
        0.0,
        6.123233995736766e-17,
        -1.0,
        0.0,
        0.0,
        1.0,
        6.123233995736766e-17,
        0.0,
        0.0,
        0.0,
        0.0,
        1.0
      ],
      "name": "Object_7"
    },
    {
      "mesh": 1,
      "name": "Object_8",
      "skin": 0
    },
    {
      "matrix": [
        1.0,
        0.0,
        0.0,
        0.0,
        0.0,
        6.123233995736766e-17,
        -1.0,
        0.0,
        0.0,
        1.0,
        6.123233995736766e-17,
        0.0,
        0.0,
        0.0,
        0.0,
        1.0
      ],
      "name": "Object_9"
    },
    {
      "mesh": 2,
      "name": "Object_10",
      "skin": 0
    },
    {
      "name": "Root_00"
    }
  ],
  "samplers": [
    {
      "magFilter": 9729,
      "minFilter": 9987,
      "wrapS": 10497,
      "wrapT": 10497
    }
  ],
  "scene": 0,
  "scenes": [
    {
      "name": "Sketchfab_Scene",
      "nodes": [
        0
      ]
    }
  ],
  "skins": [
    {
      "inverseBindMatrices": 15,
      "joints": [
        4,
        11
      ],
      "skeleton": 4
    }
  ],
  "textures": [
    {
      "sampler": 0,
      "source": 0
    },
    {
      "sampler": 0,
      "source": 1
    },
    {
      "sampler": 0,
      "source": 2
    },
    {
      "sampler": 0,
      "source": 3
    },
    {
      "sampler": 0,
      "source": 4
    },
    {
      "sampler": 0,
      "source": 5
    }
  ]
}
