{
  "accessors": [
    {
      "bufferView": 3,
      "componentType": 5126,
      "count": 1951,
      "max": [
        23.075096130371094,
        16.851198196411133,
        34.39860534667969
      ],
      "min": [
        -22.6697940826416,
        -17.404399871826172,
        -0.47961699962615967
      ],
      "type": "VEC3"
    },
    {
      "bufferView": 3,
      "byteOffset": 23412,
      "componentType": 5126,
      "count": 1951,
      "max": [
        0.9896053671836853,
        0.9992243647575378,
        0.9999085664749146
      ],
      "min": [
        -0.9991167783737183,
        -0.9963972568511963,
        -0.9999839067459106
      ],
      "type": "VEC3"
    },
    {
      "bufferView": 2,
      "componentType": 5126,
      "count": 1951,
      "max": [
        0.9955440163612366,
        0.9960939884185791
      ],
      "min": [
        0.004686951171606779,
        0.0039059510454535484
      ],
      "type": "VEC2"
    },
    {
      "bufferView": 1,
      "componentType": 5125,
      "count": 10692,
      "type": "SCALAR"
    },
    {
      "bufferView": 3,
      "byteOffset": 46824,
      "componentType": 5126,
      "count": 12,
      "max": [
        6.795468807220459,
        -8.780723571777344,
        27.89629554748535
      ],
      "min": [
        -6.597329139709473,
        -10.251802444458008,
        24.665996551513672
      ],
      "type": "VEC3"
    },
    {
      "bufferView": 3,
      "byteOffset": 46968,
      "componentType": 5126,
      "count": 12,
      "max": [
        0.24564656615257263,
        -0.8775855302810669,
        0.4662473201751709
      ],
      "min": [
        -0.17005302011966705,
        -0.9140477776527405,
        0.375566691160202
      ],
      "type": "VEC3"
    },
    {
      "bufferView": 2,
      "byteOffset": 15608,
      "componentType": 5126,
      "count": 12,
      "max": [
        0.49563801288604736,
        1.9520699977874756
      ],
      "min": [
        0.004964946769177914,
        1.7981899976730347
      ],
      "type": "VEC2"
    },
    {
      "bufferView": 1,
      "byteOffset": 42768,
      "componentType": 5125,
      "count": 24,
      "type": "SCALAR"
    },
    {
      "bufferView": 3,
      "byteOffset": 47112,
      "componentType": 5126,
      "count": 27,
      "max": [
        9.901628494262695,
        -8.819572448730469,
        26.018800735473633
      ],
      "min": [
        -9.370610237121582,
        -11.891303062438965,
        20.654199600219727
      ],
      "type": "VEC3"
    },
    {
      "bufferView": 3,
      "byteOffset": 47436,
      "componentType": 5126,
      "count": 27,
      "max": [
        0.4173833727836609,
        -0.8499960899353027,
        0.4592488706111908
      ],
      "min": [
        -0.34812846779823303,
        -0.9175434112548828,
        0.3213997185230255
      ],
      "type": "VEC3"
    },
    {
      "bufferView": 2,
      "byteOffset": 15704,
      "componentType": 5126,
      "count": 27,
      "max": [
        0.4954240024089813,
        2.931540012359619
      ],
      "min": [
        0.004580974113196135,
        2.818470001220703
      ],
      "type": "VEC2"
    },
    {
      "bufferView": 1,
      "byteOffset": 42864,
      "componentType": 5125,
      "count": 96,
      "type": "SCALAR"
    },
    {
      "bufferView": 5,
      "componentType": 5126,
      "count": 30,
      "max": [
        1.0000001192092896,
        1.0000001192092896,
        0.9881093502044678,
        0.0,
        0.016656896099448204,
        1.0,
        1.0,
        0.0,
        1.0,
        1.0,
        1.0,
        0.0,
        11.613198280334473,
        8.285433068522252e-06,
        4.295854568481445,
        1.0
      ],
      "min": [
        -3.625804083640105e-06,
        -1.0000001192092896,
        -0.9791614413261414,
        0.0,
        -3.3271260235778755e-07,
        -0.979161262512207,
        -1.0000003576278687,
        0.0,
        -1.0,
        -3.6027145142725203e-06,
        -7.747548238512536e-07,
        0.0,
        -19.476308822631836,
        -32.869720458984375,
        -4.322699546813965,
        1.0
      ],
      "type": "MAT4"
    },
    {
      "bufferView": 0,
      "componentType": 5123,
      "count": 1951,
      "type": "VEC4"
    },
    {
      "bufferView": 4,
      "componentType": 5126,
      "count": 1951,
      "max": [
        1.0,
        0.5,
        0.3232323229312897,
        0.1599999964237213
      ],
      "min": [
        0.3400000035762787,
        0.0,
        0.0,
        0.0
      ],
      "type": "VEC4"
    },
    {
      "bufferView": 0,
      "byteOffset": 15608,
      "componentType": 5123,
      "count": 12,
      "type": "VEC4"
    },
    {
      "bufferView": 4,
      "byteOffset": 31216,
      "componentType": 5126,
      "count": 12,
      "max": [
        0.9595959782600403,
        0.10999999940395355,
        0.030302999541163445,
        0.0
      ],
      "min": [
        0.8700000047683716,
        0.040404003113508224,
        0.0,
        0.0
      ],
      "type": "VEC4"
    },
    {
      "bufferView": 0,
      "byteOffset": 15704,
      "componentType": 5123,
      "count": 27,
      "type": "VEC4"
    },
    {
      "bufferView": 4,
      "byteOffset": 31408,
      "componentType": 5126,
      "count": 27,
      "max": [
        0.9696969985961914,
        0.14000001549720764,
        0.10000000149011612,
        0.0
      ],
      "min": [
        0.7599999904632568,
        0.030303001403808594,
        0.0,
        0.0
      ],
      "type": "VEC4"
    }
  ],
  "asset": {
    "extras": {
      "author": "nguyenlouis32 (https://sketchfab.com/nguyenlouis32)",
      "license": "CC-BY-4.0 (http://creativecommons.org/licenses/by/4.0/)",
      "source": "https://sketchfab.com/3d-models/ditto-47a04e8d40dd49689bcc6158f1f8a821",
      "title": "Ditto"
    },
    "generator": "Sketchfab-13.30.0",
    "version": "2.0"
  },
  "bufferViews": [
    {
      "buffer": 0,
      "byteLength": 15920,
      "byteStride": 8,
      "name": "shortBufferViews",
      "target": 34962
    },
    {
      "buffer": 0,
      "byteLength": 43248,
      "byteOffset": 15920,
      "name": "floatBufferViews",
      "target": 34963
    },
    {
      "buffer": 0,
      "byteLength": 15920,
      "byteOffset": 59168,
      "byteStride": 8,
      "name": "floatBufferViews",
      "target": 34962
    },
    {
      "buffer": 0,
      "byteLength": 47760,
      "byteOffset": 75088,
      "byteStride": 12,
      "name": "floatBufferViews",
      "target": 34962
    },
    {
      "buffer": 0,
      "byteLength": 31840,
      "byteOffset": 122848,
      "byteStride": 16,
      "name": "floatBufferViews",
      "target": 34962
    },
    {
      "buffer": 0,
      "byteLength": 1920,
      "byteOffset": 154688,
      "name": "floatBufferViews"
    }
  ],
  "buffers": [
    {
      "byteLength": 156608,
      "uri": "scene.bin"
    }
  ],
  "images": [
    {
      "uri": "textures/BodySpc-material_baseColor.png"
    },
    {
      "uri": "textures/Eye-material_baseColor.png"
    },
    {
      "uri": "textures/Mouth-material_baseColor.png"
    }
  ],
  "materials": [
    {
      "doubleSided": true,
      "name": "BodySpc-material",
      "pbrMetallicRoughness": {
        "baseColorTexture": {
          "index": 0
        },
        "metallicFactor": 0.0,
        "roughnessFactor": 0.9577051494623774
      }
    },
    {
      "doubleSided": true,
      "name": "Eye-material",
      "pbrMetallicRoughness": {
        "baseColorTexture": {
          "index": 1
        },
        "metallicFactor": 0.0,
        "roughnessFactor": 0.9577051494623774
      }
    },
    {
      "doubleSided": true,
      "name": "Mouth-material",
      "pbrMetallicRoughness": {
        "baseColorTexture": {
          "index": 2
        },
        "metallicFactor": 0.0,
        "roughnessFactor": 0.9577051494623774
      }
    }
  ],
  "meshes": [
    {
      "name": "mesh_0_pm0132_00_Skin_001_BodySpc-material_0",
      "primitives": [
        {
          "attributes": {
            "JOINTS_0": 13,
            "NORMAL": 1,
            "POSITION": 0,
            "TEXCOORD_0": 2,
            "WEIGHTS_0": 14
          },
          "indices": 3,
          "material": 0,
          "mode": 4
        }
      ]
    },
    {
      "name": "mesh_1_pm0132_00_Skin_001_Eye-material_0",
      "primitives": [
        {
          "attributes": {
            "JOINTS_0": 15,
            "NORMAL": 5,
            "POSITION": 4,
            "TEXCOORD_0": 6,
            "WEIGHTS_0": 16
          },
          "indices": 7,
          "material": 1,
          "mode": 4
        }
      ]
    },
    {
      "name": "mesh_2_pm0132_00_Skin_001_Mouth-material_0",
      "primitives": [
        {
          "attributes": {
            "JOINTS_0": 17,
            "NORMAL": 9,
            "POSITION": 8,
            "TEXCOORD_0": 10,
            "WEIGHTS_0": 18
          },
          "indices": 11,
          "material": 2,
          "mode": 4
        }
      ]
    }
  ],
  "nodes": [
    {
      "children": [
        1
      ],
      "matrix": [
        1.0,
        0.0,
        0.0,
        0.0,
        0.0,
        -1.0,
        -4.440892098500626e-16,
        0.0,
        0.0,
        4.440892098500626e-16,
        -1.0,
        0.0,
        0.0,
        0.0,
        0.0,
        1.0
      ],
      "name": "Sketchfab_model"
    },
    {
      "children": [
        2
      ],
      "matrix": [
        0.009999999776482582,
        0.0,
        0.0,
        0.0,
        0.0,
        0.0,
        0.009999999776482582,
        0.0,
        0.0,
        -0.009999999776482582,
        0.0,
        0.0,
        0.0,
        0.0,
        0.0,
        1.0
      ],
      "name": "pm0132_00.fbx"
    },
    {
      "children": [
        3
      ],
      "name": "RootNode"
    },
    {
      "children": [
        4,
        6,
        8,
        10,
        5,
        7,
        9
      ],
      "name": "Object_3"
    },
    {
      "children": [
        11
      ],
      "name": "_rootJoint"
    },
    {
      "matrix": [
        1.0,
        0.0,
        -1.232595164407831e-32,
        0.0,
        1.8991135491519597e-65,
        1.0,
        1.5407439555097887e-33,
        0.0,
        1.232595164407831e-32,
        -1.5407439555097887e-33,
        1.0,
        0.0,
        0.0,
        -1.7763568394002505e-15,
        4.440892098500626e-16,
        1.0
      ],
      "name": "Object_5"
    },
    {
      "mesh": 0,
      "name": "Object_6",
      "skin": 0
    },
    {
      "matrix": [
        1.0,
        1.0587911840678754e-22,
        8.249364684714583e-18,
        0.0,
        -1.0587911840678753e-22,
        0.9999999999999999,
        0.0,
        0.0,
        -8.249364684714583e-18,
        -8.73435460233667e-40,
        1.0,
        0.0,
        0.0,
        -4.440892098500626e-16,
        0.0,
        1.0
      ],
      "name": "Object_7"
    },
    {
      "mesh": 1,
      "name": "Object_8",
      "skin": 0
    },
    {
      "matrix": [
        0.9999999999999999,
        -5.293955920339377e-23,
        -3.1736965469662296e-18,
        0.0,
        5.293955920339377e-23,
        0.9999999999999999,
        0.0,
        0.0,
        3.17369654696623e-18,
        -1.6801409624172515e-40,
        1.0,
        0.0,
        -8.881784197001252e-16,
        0.0,
        3.552713678800501e-15,
        1.0
      ],
      "name": "Object_9"
    },
    {
      "mesh": 2,
      "name": "Object_10",
      "skin": 0
    },
    {
      "children": [
        12,
        39
      ],
      "name": "pm0132_00_028",
      "rotation": [
        0.7071068286895752,
        0.0,
        0.0,
        0.7071067094802856
      ]
    },
    {
      "children": [
        13
      ],
      "name": "Origin_026",
      "rotation": [
        0.7071068286895752,
        0.0,
        0.0,
        0.7071068286895752
      ]
    },
    {
      "children": [
        14,
        16,
        18,
        20,
        22,
        24,
        26
      ],
      "name": "Waist_025",
      "rotation": [
        -0.5,
        0.5,
        0.5,
        0.5
      ],
      "scale": [
        1.0,
        0.9999998807907104,
        1.0
      ],
      "translation": [
        0.0,
        2.117680072784424,
        -8.636225957460442e-15
      ]
    },
    {
      "children": [
        15
      ],
      "name": "LFootA_03",
      "rotation": [
        9.440395842830185e-07,
        0.6312353014945984,
        0.7755913734436035,
        1.402135126227222e-06
      ],
      "scale": [
        1.0,
        0.9999999403953552,
        0.9999999403953552
      ],
      "translation": [
        3.3495559692382813,
        -5.693100929260254,
        7.401309967041016
      ]
    },
    {
      "name": "EndLFootA_00",
      "rotation": [
        0.5000005960464478,
        0.5000008344650269,
        -0.49999988079071045,
        -0.49999868869781494
      ],
      "scale": [
        1.000000238418579,
        1.0,
        0.9999998211860657
      ],
      "translation": [
        3.4445577057340415e-07,
        7.681804656982422,
        3.373785375515581e-07
      ]
    },
    {
      "children": [
        17
      ],
      "name": "LFootB_04",
      "rotation": [
        1.595740570792259e-07,
        4.660590083348584e-14,
        1.0,
        -4.823314057184058e-12
      ],
      "scale": [
        1.0,
        0.9999997615814209,
        1.0
      ],
      "translation": [
        3.3495728969573975,
        -16.808406829833984,
        -1.0149999856948853
      ]
    },
    {
      "name": "EndLFootB_02",
      "rotation": [
        0.5000013709068298,
        0.5000001192092896,
        -0.499998539686203,
        -0.4999999701976776
      ],
      "scale": [
        1.0,
        0.9999995231628418,
        1.0
      ],
      "translation": [
        -5.153094662091462e-08,
        6.9107985496521,
        -1.3031905155003187e-07
      ]
    },
    {
      "children": [
        19
      ],
      "name": "LFootC_05",
      "rotation": [
        -1.1590061603783397e-06,
        -0.6504788994789124,
        0.7595243453979492,
        1.0571678785709082e-06
      ],
      "scale": [
        1.0,
        0.999999463558197,
        0.9999997615814209
      ],
      "translation": [
        3.3495700359344482,
        -6.162083625793457,
        -13.604220390319824
      ]
    },
    {
      "name": "EndLFootC_01",
      "rotation": [
        0.5000010132789612,
        0.5000004768371582,
        -0.4999997615814209,
        -0.49999871850013733
      ],
      "scale": [
        0.9999996423721313,
        0.9999991655349731,
        0.9999996423721313
      ],
      "translation": [
        -2.003509802506187e-09,
        6.361294269561768,
        -1.239174594047654e-06
      ]
    },
    {
      "children": [
        21
      ],
      "name": "RFootA_07",
      "rotation": [
        2.994692351876438e-07,
        0.7755913734436035,
        0.6312353014945984,
        1.168044718724559e-06
      ],
      "scale": [
        1.0,
        0.9999999403953552,
        0.9999998807907104
      ],
      "translation": [
        3.3495500087738037,
        5.665923118591309,
        7.401329040527344
      ]
    },
    {
      "name": "EndRFootA_06",
      "rotation": [
        -0.4999975860118866,
        -0.4999980330467224,
        0.5000020265579224,
        0.500002384185791
      ],
      "scale": [
        1.000000238418579,
        0.9999999403953552,
        0.9999997615814209
      ],
      "translation": [
        2.3350261812993267e-07,
        7.681800842285156,
        -2.0679338774698408e-07
      ]
    },
    {
      "children": [
        23
      ],
      "name": "RFootB_09",
      "rotation": [
        -1.8380486608293722e-06,
        1.0,
        8.618046720698658e-09,
        -3.5325651879247744e-06
      ],
      "scale": [
        1.0,
        0.9999997615814209,
        1.0
      ],
      "translation": [
        3.3495559692382813,
        16.781206130981445,
        -1.0149999856948853
      ]
    },
    {
      "name": "EndRFootB_08",
      "rotation": [
        0.5000009536743164,
        0.5000009536743164,
        -0.4999990165233612,
        -0.4999990463256836
      ],
      "scale": [
        1.0,
        0.9999995231628418,
        1.0
      ],
      "translation": [
        2.955833906526095e-07,
        6.910801410675049,
        9.684022472811193e-08
      ]
    },
    {
      "children": [
        25
      ],
      "name": "RFootC_011",
      "rotation": [
        1.3357584975892678e-06,
        0.7595241069793701,
        -0.6504791378974915,
        -1.5965580359988962e-06
      ],
      "scale": [
        1.0,
        0.9999995231628418,
        0.9999998211860657
      ],
      "translation": [
        3.3495700359344482,
        6.134888648986816,
        -13.60420036315918
      ]
    },
    {
      "name": "EndRFootC_010",
      "rotation": [
        0.5000012516975403,
        0.5000007748603821,
        -0.49999845027923584,
        -0.4999995231628418
      ],
      "scale": [
        0.9999997615814209,
        0.9999993443489075,
        0.9999995827674866
      ],
      "translation": [
        3.7809607533745293e-07,
        6.361294746398926,
        -3.3255938092224824e-07
      ]
    },
    {
      "children": [
        27
      ],
      "name": "Spine_024",
      "rotation": [
        1.0939819361510672e-07,
        -2.2460162085735647e-07,
        -0.7071068286895752,
        0.7071068286895752
      ],
      "scale": [
        0.9999998807907104,
        0.9999998807907104,
        1.0
      ],
      "translation": [
        11.63290023803711,
        2.3852558683756797e-07,
        5.221984267222979e-08
      ]
    },
    {
      "children": [
        28,
        29,
        31,
        33,
        36
      ],
      "name": "HeadA_023",
      "rotation": [
        -0.005889581982046366,
        0.005889578256756067,
        0.7070825099945068,
        0.7070820927619934
      ],
      "scale": [
        0.9999998211860657,
        0.9999998807907104,
        0.9999999403953552
      ],
      "translation": [
        -2.3850165575822757e-07,
        7.881387233734131,
        1.4994151342762052e-07
      ]
    },
    {
      "name": "EndHeadA_012",
      "rotation": [
        3.770247225531875e-09,
        -4.656075525133474e-09,
        1.1794639931395068e-08,
        1.0
      ],
      "scale": [
        0.9999998211860657,
        0.9999997615814209,
        0.9999997019767761
      ],
      "translation": [
        14.797398567199707,
        -8.23399932414759e-06,
        9.582757911630324e-07
      ]
    },
    {
      "children": [
        30
      ],
      "name": "HeadB_014",
      "rotation": [
        0.00688973581418395,
        -0.004677985329180956,
        -0.8272770643234253,
        0.5617324113845825
      ],
      "scale": [
        0.9999999403953552,
        0.9999997615814209,
        0.9999998807907104
      ],
      "translation": [
        9.807587623596191,
        -5.072458744049072,
        0.26928794384002686
      ]
    },
    {
      "name": "EndHeadB_013",
      "rotation": [
        8.85470115008502e-07,
        -5.867120762559352e-07,
        0.7071070671081543,
        0.7071065902709961
      ],
      "scale": [
        0.9999999403953552,
        0.9999998211860657,
        0.9999998807907104
      ],
      "translation": [
        -5.69476014788961e-07,
        3.6905014514923096,
        2.1791760218548006e-07
      ]
    },
    {
      "children": [
        32
      ],
      "name": "HeadC_016",
      "rotation": [
        0.0054412465542554855,
        -0.006304570939391851,
        -0.6533547043800354,
        0.7570061087608337
      ],
      "scale": [
        0.9999998807907104,
        0.9999997615814209,
        0.9999997019767761
      ],
      "translation": [
        11.344408988952637,
        4.482656002044678,
        0.08309098333120346
      ]
    },
    {
      "name": "EndHeadC_015",
      "rotation": [
        5.639113282995822e-07,
        -6.647351256106049e-07,
        0.7071062922477722,
        0.7071073651313782
      ],
      "scale": [
        0.9999997615814209,
        0.9999998807907104,
        0.9999996423721313
      ],
      "translation": [
        -5.021265110372042e-07,
        4.4072346687316895,
        1.8155390080210054e-07
      ]
    },
    {
      "children": [
        34
      ],
      "name": "LArm_019",
      "rotation": [
        -0.008065437898039818,
        0.0020792249124497175,
        0.9683123230934143,
        -0.24960383772850037
      ],
      "scale": [
        0.9999991059303284,
        0.9999997019767761,
        0.9999997615814209
      ],
      "translation": [
        1.1699656248092651,
        -13.426337242126465,
        -0.19231392443180084
      ]
    },
    {
      "children": [
        35
      ],
      "name": "LHand_018",
      "rotation": [
        -3.315738013043301e-07,
        -1.4989240071372478e-07,
        0.08609933406114578,
        0.9962865710258484
      ],
      "scale": [
        0.9999985694885254,
        0.9999995827674866,
        0.9999995231628418
      ],
      "translation": [
        2.3156105726229725e-06,
        4.250306606292725,
        -1.4432012562792806e-07
      ]
    },
    {
      "name": "EndLHand_017",
      "rotation": [
        2.4252754471376647e-08,
        6.658993356722931e-09,
        0.7071067690849304,
        0.7071068286895752
      ],
      "scale": [
        0.9999979138374329,
        1.0,
        0.9999994039535522
      ],
      "translation": [
        3.7986710594850592e-06,
        5.415591239929199,
        2.476585336808057e-08
      ]
    },
    {
      "children": [
        37
      ],
      "name": "RArm_022",
      "rotation": [
        0.004014374688267708,
        -0.0072975303046405315,
        -0.4819692075252533,
        0.8761485815048218
      ],
      "scale": [
        0.9999998211860657,
        0.9999997019767761,
        0.9999997019767761
      ],
      "translation": [
        3.4019763469696045,
        12.779817581176758,
        -0.04922483116388321
      ]
    },
    {
      "children": [
        38
      ],
      "name": "RHand_021",
      "rotation": [
        -8.124317218971555e-07,
        2.2584779912904196e-07,
        -0.09399288147687912,
        0.9955728650093079
      ],
      "scale": [
        0.9999997615814209,
        0.9999995827674866,
        0.9999995231628418
      ],
      "translation": [
        1.8094144706992665e-06,
        6.9837799072265625,
        -3.84108233220104e-07
      ]
    },
    {
      "name": "EndRHand_020",
      "rotation": [
        4.697130577824282e-07,
        -6.971739594519022e-07,
        0.7071071863174438,
        0.707106351852417
      ],
      "scale": [
        0.9999998211860657,
        0.9999994039535522,
        0.9999995231628418
      ],
      "translation": [
        2.154643652829691e-06,
        6.173698902130127,
        -1.894341465913385e-07
      ]
    },
    {
      "name": "pm0132_00_Skin_027"
    }
  ],
  "samplers": [
    {
      "magFilter": 9729,
      "minFilter": 9987,
      "wrapS": 10497,
      "wrapT": 10497
    }
  ],
  "scene": 0,
  "scenes": [
    {
      "name": "Sketchfab_Scene",
      "nodes": [
        0
      ]
    }
  ],
  "skins": [
    {
      "inverseBindMatrices": 12,
      "joints": [
        4,
        11,
        12,
        13,
        14,
        15,
        16,
        17,
        18,
        19,
        20,
        21,
        22,
        23,
        24,
        25,
        26,
        27,
        28,
        29,
        30,
        31,
        32,
        33,
        34,
        35,
        36,
        37,
        38,
        39
      ],
      "skeleton": 4
    }
  ],
  "textures": [
    {
      "sampler": 0,
      "source": 0
    },
    {
      "sampler": 0,
      "source": 1
    },
    {
      "sampler": 0,
      "source": 2
    }
  ]
}
