{
  "accessors": [
    {
      "bufferView": 3,
      "componentType": 5126,
      "count": 283,
      "max": [
        2.149614095687866,
        4.563750267028809,
        1.3389947414398193
      ],
      "min": [
        -2.1158981323242188,
        0.4882572293281555,
        -1.9367494583129883
      ],
      "type": "VEC3"
    },
    {
      "bufferView": 3,
      "byteOffset": 3396,
      "componentType": 5126,
      "count": 283,
      "max": [
        0.9987005591392517,
        0.3952290415763855,
        0.9902459383010864
      ],
      "min": [
        -0.9806046485900879,
        -0.8227846622467041,
        -0.9894800186157227
      ],
      "type": "VEC3"
    },
    {
      "bufferView": 4,
      "componentType": 5126,
      "count": 283,
      "max": [
        0.9938812851905823,
        0.9963312149047852,
        0.9979336261749268,
        1.0
      ],
      "min": [
        -0.998691976070404,
        -0.9218722581863403,
        -0.9938607215881348,
        -1.0
      ],
      "type": "VEC4"
    },
    {
      "bufferView": 2,
      "componentType": 5126,
      "count": 283,
      "max": [
        0.9958037734031677,
        0.9979552626609802
      ],
      "min": [
        0.004562447778880596,
        0.005065977573394775
      ],
      "type": "VEC2"
    },
    {
      "bufferView": 1,
      "componentType": 5125,
      "count": 855,
      "type": "SCALAR"
    },
    {
      "bufferView": 3,
      "byteOffset": 6792,
      "componentType": 5126,
      "count": 405,
      "max": [
        1.7250745296478271,
        5.795835494995117,
        1.4540681838989258
      ],
      "min": [
        -1.8629281520843506,
        3.503103494644165,
        -1.7668039798736572
      ],
      "type": "VEC3"
    },
    {
      "bufferView": 3,
      "byteOffset": 11652,
      "componentType": 5126,
      "count": 405,
      "max": [
        0.995076596736908,
        0.7604653835296631,
        0.997819721698761
      ],
      "min": [
        -0.993796706199646,
        -0.9930905103683472,
        -0.9918516278266907
      ],
      "type": "VEC3"
    },
    {
      "bufferView": 4,
      "byteOffset": 4528,
      "componentType": 5126,
      "count": 405,
      "max": [
        0.9991458058357239,
        0.7820212244987488,
        0.993084192276001,
        1.0
      ],
      "min": [
        -0.9967812895774841,
        -0.7766255140304565,
        -0.9960425496101379,
        -1.0
      ],
      "type": "VEC4"
    },
    {
      "bufferView": 2,
      "byteOffset": 2264,
      "componentType": 5126,
      "count": 405,
      "max": [
        0.9857480525970459,
        0.9964141249656677
      ],
      "min": [
        0.0030518043786287308,
        0.25987643003463745
      ],
      "type": "VEC2"
    },
    {
      "bufferView": 1,
      "byteOffset": 3420,
      "componentType": 5125,
      "count": 1458,
      "type": "SCALAR"
    },
    {
      "bufferView": 3,
      "byteOffset": 16512,
      "componentType": 5126,
      "count": 437,
      "max": [
        1.439017415046692,
        2.150376796722412,
        1.4390172958374023
      ],
      "min": [
        -1.43901789188385,
        -2.818106144085843e-16,
        -1.43901789188385
      ],
      "type": "VEC3"
    },
    {
      "bufferView": 3,
      "byteOffset": 21756,
      "componentType": 5126,
      "count": 437,
      "max": [
        0.9991568922996521,
        1.0,
        0.9991568922996521
      ],
      "min": [
        -0.9991568922996521,
        -1.0,
        -0.9991569519042969
      ],
      "type": "VEC3"
    },
    {
      "bufferView": 4,
      "byteOffset": 11008,
      "componentType": 5126,
      "count": 437,
      "max": [
        1.0,
        0.4035951793193817,
        0.9999977946281433,
        1.0
      ],
      "min": [
        -0.9999788999557495,
        -0.4035951495170593,
        -0.9999977946281433,
        1.0
      ],
      "type": "VEC4"
    },
    {
      "bufferView": 2,
      "byteOffset": 5504,
      "componentType": 5126,
      "count": 437,
      "max": [
        0.9963073134422302,
        0.8887465000152588
      ],
      "min": [
        0.0041199359111487865,
        0.013137996196746826
      ],
      "type": "VEC2"
    },
    {
      "bufferView": 1,
      "byteOffset": 9252,
      "componentType": 5125,
      "count": 1500,
      "type": "SCALAR"
    },
    {
      "bufferView": 5,
      "componentType": 5126,
      "count": 2,
      "max": [
        1.0,
        0.0,
        0.0,
        0.0,
        0.0,
        1.0,
        6.123234262925839e-17,
        0.0,
        0.0,
        0.0,
        1.0,
        0.0,
        0.0,
        0.0,
        0.0,
        1.0
      ],
      "min": [
        1.0,
        0.0,
        0.0,
        0.0,
        0.0,
        1.0,
        0.0,
        0.0,
        0.0,
        -6.123234262925839e-17,
        1.0,
        0.0,
        0.0,
        0.0,
        0.0,
        1.0
      ],
      "type": "MAT4"
    },
    {
      "bufferView": 0,
      "componentType": 5123,
      "count": 283,
      "type": "VEC4"
    },
    {
      "bufferView": 4,
      "byteOffset": 18000,
      "componentType": 5126,
      "count": 283,
      "max": [
        1.0,
        0.0,
        0.0,
        0.0
      ],
      "min": [
        1.0,
        0.0,
        0.0,
        0.0
      ],
      "type": "VEC4"
    },
    {
      "bufferView": 0,
      "byteOffset": 2264,
      "componentType": 5123,
      "count": 405,
      "type": "VEC4"
    },
    {
      "bufferView": 4,
      "byteOffset": 22528,
      "componentType": 5126,
      "count": 405,
      "max": [
        1.0,
        0.0,
        0.0,
        0.0
      ],
      "min": [
        1.0,
        0.0,
        0.0,
        0.0
      ],
      "type": "VEC4"
    },
    {
      "bufferView": 0,
      "byteOffset": 5504,
      "componentType": 5123,
      "count": 437,
      "type": "VEC4"
    },
    {
      "bufferView": 4,
      "byteOffset": 29008,
      "componentType": 5126,
      "count": 437,
      "max": [
        1.0,
        0.0,
        0.0,
        0.0
      ],
      "min": [
        1.0,
        0.0,
        0.0,
        0.0
      ],
      "type": "VEC4"
    }
  ],
  "asset": {
    "extras": {
      "author": "StinkySkunk12 (https://sketchfab.com/Bearfnf)",
      "license": "SKETCHFAB Standard (https://sketchfab.com/licenses)",
      "source": "https://sketchfab.com/3d-models/animal-crossing-spring-flowers-updated-24461e197c6443ec852951d159d1f202",
      "title": "Animal Crossing Spring Flowers UPDATED"
    },
    "generator": "Sketchfab-16.95.0",
    "version": "2.0"
  },
  "bufferViews": [
    {
      "buffer": 0,
      "byteLength": 9000,
      "byteStride": 8,
      "name": "shortBufferViews",
      "target": 34962
    },
    {
      "buffer": 0,
      "byteLength": 15252,
      "byteOffset": 9000,
      "name": "floatBufferViews",
      "target": 34963
    },
    {
      "buffer": 0,
      "byteLength": 9000,
      "byteOffset": 24252,
      "byteStride": 8,
      "name": "floatBufferViews",
      "target": 34962
    },
    {
      "buffer": 0,
      "byteLength": 27000,
      "byteOffset": 33252,
      "byteStride": 12,
      "name": "floatBufferViews",
      "target": 34962
    },
    {
      "buffer": 0,
      "byteLength": 36000,
      "byteOffset": 60252,
      "byteStride": 16,
      "name": "floatBufferViews",
      "target": 34962
    },
    {
      "buffer": 0,
      "byteLength": 128,
      "byteOffset": 96252,
      "name": "floatBufferViews"
    }
  ],
  "buffers": [
    {
      "byteLength": 96380,
      "uri": "scene.bin"
    }
  ],
  "images": [
    {
      "uri": "textures/mFlowerBodyTulip_baseColor.png"
    },
    {
      "uri": "textures/mFlowerBodyTulip_normal.png"
    },
    {
      "uri": "textures/mFlowerTulip_baseColor.png"
    },
    {
      "uri": "textures/mFlowerTulip_normal.png"
    },
    {
      "uri": "textures/mPlanter_baseColor.png"
    },
    {
      "uri": "textures/mPlanter_normal.png"
    }
  ],
  "materials": [
    {
      "doubleSided": true,
      "name": "mFlowerBodyTulip",
      "normalTexture": {
        "index": 1
      },
      "pbrMetallicRoughness": {
        "baseColorTexture": {
          "index": 0
        },
        "metallicFactor": 0.0,
        "roughnessFactor": 0.8929713596497552
      }
    },
    {
      "alphaMode": "BLEND",
      "doubleSided": true,
      "name": "mFlowerTulip",
      "normalTexture": {
        "index": 3
      },
      "pbrMetallicRoughness": {
        "baseColorTexture": {
          "index": 2
        },
        "metallicFactor": 0.0,
        "roughnessFactor": 0.8929713596497552
      }
    },
    {
      "alphaMode": "BLEND",
      "doubleSided": true,
      "name": "mPlanter",
      "normalTexture": {
        "index": 5
      },
      "pbrMetallicRoughness": {
        "baseColorTexture": {
          "index": 4
        },
        "metallicFactor": 0.0,
        "roughnessFactor": 0.8929713596497552
      }
    }
  ],
  "meshes": [
    {
      "name": "Av8_Leaf_L_1__mFlowerBodyTulip_mFlowerBodyTulip_0",
      "primitives": [
        {
          "attributes": {
            "JOINTS_0": 16,
            "NORMAL": 1,
            "POSITION": 0,
            "TANGENT": 2,
            "TEXCOORD_0": 3,
            "TEXCOORD_1": 3,
            "TEXCOORD_2": 3,
            "WEIGHTS_0": 17
          },
          "indices": 4,
          "material": 0,
          "mode": 4
        }
      ]
    },
    {
      "name": "FLW_in_a_1__mFlowerTulip_mFlowerTulip_0",
      "primitives": [
        {
          "attributes": {
            "JOINTS_0": 18,
            "NORMAL": 6,
            "POSITION": 5,
            "TANGENT": 7,
            "TEXCOORD_0": 8,
            "TEXCOORD_1": 8,
            "TEXCOORD_2": 8,
            "WEIGHTS_0": 19
          },
          "indices": 9,
          "material": 1,
          "mode": 4
        }
      ]
    },
    {
      "name": "pCylinder272__mPlanter_mPlanter_0",
      "primitives": [
        {
          "attributes": {
            "JOINTS_0": 20,
            "NORMAL": 11,
            "POSITION": 10,
            "TANGENT": 12,
            "TEXCOORD_0": 13,
            "TEXCOORD_1": 13,
            "TEXCOORD_2": 13,
            "WEIGHTS_0": 21
          },
          "indices": 14,
          "material": 2,
          "mode": 4
        }
      ]
    }
  ],
  "nodes": [
    {
      "children": [
        1
      ],
      "matrix": [
        1.0,
        0.0,
        0.0,
        0.0,
        0.0,
        2.220446049250313e-16,
        -1.0,
        0.0,
        0.0,
        1.0,
        2.220446049250313e-16,
        0.0,
        0.0,
        0.0,
        0.0,
        1.0
      ],
      "name": "Sketchfab_model"
    },
    {
      "children": [
        2
      ],
      "matrix": [
        0.02539999969303608,
        0.0,
        0.0,
        0.0,
        0.0,
        0.0,
        0.02539999969303608,
        0.0,
        0.0,
        -0.02539999969303608,
        0.0,
        0.0,
        0.0,
        0.0,
        0.0,
        1.0
      ],
      "name": "IdrObjOfficeFlowerSpring.fbx"
    },
    {
      "children": [
        3
      ],
      "name": "RootNode"
    },
    {
      "children": [
        4,
        6,
        8,
        10,
        5,
        7,
        9
      ],
      "name": "Object_3"
    },
    {
      "children": [
        11
      ],
      "name": "_rootJoint"
    },
    {
      "matrix": [
        1.0,
        0.0,
        0.0,
        0.0,
        0.0,
        6.123233995736766e-17,
        -1.0,
        0.0,
        0.0,
        1.0,
        6.123233995736766e-17,
        0.0,
        0.0,
        0.0,
        0.0,
        1.0
      ],
      "name": "Object_5"
    },
    {
      "mesh": 0,
      "name": "Object_6",
      "skin": 0
    },
    {
      "matrix": [
        1.0,
        0.0,
        0.0,
        0.0,
        0.0,
        6.123233995736766e-17,
        -1.0,
        0.0,
        0.0,
        1.0,
        6.123233995736766e-17,
        0.0,
        0.0,
        0.0,
        0.0,
        1.0
      ],
      "name": "Object_7"
    },
    {
      "mesh": 1,
      "name": "Object_8",
      "skin": 0
    },
    {
      "matrix": [
        1.0,
        0.0,
        0.0,
        0.0,
        0.0,
        6.123233995736766e-17,
        -1.0,
        0.0,
        0.0,
        1.0,
        6.123233995736766e-17,
        0.0,
        0.0,
        0.0,
        0.0,
        1.0
      ],
      "name": "Object_9"
    },
    {
      "mesh": 2,
      "name": "Object_10",
      "skin": 0
    },
    {
      "name": "Root_00"
    }
  ],
  "samplers": [
    {
      "magFilter": 9729,
      "minFilter": 9987,
      "wrapS": 10497,
      "wrapT": 10497
    }
  ],
  "scene": 0,
  "scenes": [
    {
      "name": "Sketchfab_Scene",
      "nodes": [
        0
      ]
    }
  ],
  "skins": [
    {
      "inverseBindMatrices": 15,
      "joints": [
        4,
        11
      ],
      "skeleton": 4
    }
  ],
  "textures": [
    {
      "sampler": 0,
      "source": 0
    },
    {
      "sampler": 0,
      "source": 1
    },
    {
      "sampler": 0,
      "source": 2
    },
    {
      "sampler": 0,
      "source": 3
    },
    {
      "sampler": 0,
      "source": 4
    },
    {
      "sampler": 0,
      "source": 5
    }
  ]
}
