{
  "accessors": [
    {
      "bufferView": 3,
      "componentType": 5126,
      "count": 3281,
      "max": [
        75.78217315673828,
        168.19700622558594,
        59.3099365234375
      ],
      "min": [
        -75.78218078613281,
        0.18209028244018555,
        -55.965972900390625
      ],
      "type": "VEC3"
    },
    {
      "bufferView": 3,
      "byteOffset": 39372,
      "componentType": 5126,
      "count": 3281,
      "max": [
        0.9995307326316833,
        1.0,
        0.9998207092285156
      ],
      "min": [
        -0.9995352625846863,
        -0.9999996423721313,
        -0.9988059997558594
      ],
      "type": "VEC3"
    },
    {
      "bufferView": 2,
      "componentType": 5126,
      "count": 3281,
      "max": [
        0.9882804751396179,
        0.9723324775695801
      ],
      "min": [
        0.011719469912350178,
        0.09223710745573044
      ],
      "type": "VEC2"
    },
    {
      "bufferView": 1,
      "componentType": 5125,
      "count": 16368,
      "type": "SCALAR"
    },
    {
      "bufferView": 3,
      "byteOffset": 78744,
      "componentType": 5126,
      "count": 72,
      "max": [
        44.5625,
        126.06510162353516,
        51.468902587890625
      ],
      "min": [
        -44.5625,
        103.91340637207031,
        27.976329803466797
      ],
      "type": "VEC3"
    },
    {
      "bufferView": 3,
      "byteOffset": 79608,
      "componentType": 5126,
      "count": 72,
      "max": [
        0.9638330936431885,
        0.4939822852611542,
        0.8879456520080566
      ],
      "min": [
        -0.9638330936431885,
        -0.40904489159584045,
        0.21624989807605743
      ],
      "type": "VEC3"
    },
    {
      "bufferView": 2,
      "byteOffset": 26248,
      "componentType": 5126,
      "count": 72,
      "max": [
        0.4552290141582489,
        1.9687579870224
      ],
      "min": [
        0.044771019369363785,
        1.7745970487594604
      ],
      "type": "VEC2"
    },
    {
      "bufferView": 1,
      "byteOffset": 65472,
      "componentType": 5125,
      "count": 300,
      "type": "SCALAR"
    },
    {
      "bufferView": 3,
      "byteOffset": 80472,
      "componentType": 5126,
      "count": 40,
      "max": [
        30.500629425048828,
        142.24639892578125,
        52.85905456542969
      ],
      "min": [
        -30.500629425048828,
        125.80049896240234,
        36.7799072265625
      ],
      "type": "VEC3"
    },
    {
      "bufferView": 3,
      "byteOffset": 80952,
      "componentType": 5126,
      "count": 40,
      "max": [
        0.5346540808677673,
        0.754871666431427,
        0.7875465750694275
      ],
      "min": [
        -0.5346540808677673,
        0.4897271692752838,
        0.559823215007782
      ],
      "type": "VEC3"
    },
    {
      "bufferView": 2,
      "byteOffset": 26824,
      "componentType": 5126,
      "count": 40,
      "max": [
        0.43450960516929626,
        2.9254820346832275
      ],
      "min": [
        0.06549037247896194,
        2.8197319507598877
      ],
      "type": "VEC2"
    },
    {
      "bufferView": 1,
      "byteOffset": 66672,
      "componentType": 5125,
      "count": 144,
      "type": "SCALAR"
    },
    {
      "bufferView": 3,
      "byteOffset": 81432,
      "componentType": 5126,
      "count": 254,
      "max": [
        17.349849700927734,
        126.02140045166016,
        58.113372802734375
      ],
      "min": [
        -17.349849700927734,
        113.37300109863281,
        32.33475112915039
      ],
      "type": "VEC3"
    },
    {
      "bufferView": 3,
      "byteOffset": 84480,
      "componentType": 5126,
      "count": 254,
      "max": [
        0.9891611933708191,
        0.9989873766899109,
        0.9568124413490295
      ],
      "min": [
        -0.9891611933708191,
        -0.9944383502006531,
        -0.9999988675117493
      ],
      "type": "VEC3"
    },
    {
      "bufferView": 2,
      "byteOffset": 27144,
      "componentType": 5126,
      "count": 254,
      "max": [
        0.59375,
        0.9882813096046448
      ],
      "min": [
        0.40625,
        0.6484376192092896
      ],
      "type": "VEC2"
    },
    {
      "bufferView": 1,
      "byteOffset": 67248,
      "componentType": 5125,
      "count": 1146,
      "type": "SCALAR"
    },
    {
      "bufferView": 3,
      "byteOffset": 87528,
      "componentType": 5126,
      "count": 552,
      "max": [
        1.1126840114593506,
        211.6383056640625,
        -39.38835144042969
      ],
      "min": [
        -1.112686038017273,
        17.534347534179688,
        -355.3682861328125
      ],
      "type": "VEC3"
    },
    {
      "bufferView": 3,
      "byteOffset": 94152,
      "componentType": 5126,
      "count": 552,
      "max": [
        1.0,
        0.9993289113044739,
        0.9984791874885559
      ],
      "min": [
        -1.0,
        -0.9730960130691528,
        -0.9911612272262573
      ],
      "type": "VEC3"
    },
    {
      "bufferView": 2,
      "byteOffset": 29176,
      "componentType": 5126,
      "count": 552,
      "max": [
        0.9882813096046448,
        0.2954447865486145
      ],
      "min": [
        0.011718720197677612,
        0.011718629859387875
      ],
      "type": "VEC2"
    },
    {
      "bufferView": 1,
      "byteOffset": 71832,
      "componentType": 5125,
      "count": 1308,
      "type": "SCALAR"
    },
    {
      "bufferView": 5,
      "componentType": 5126,
      "count": 72,
      "max": [
        1.0,
        1.000000238418579,
        0.5657740235328674,
        0.0,
        1.000000238418579,
        1.0,
        1.0000001192092896,
        0.0,
        0.9945691227912903,
        0.8360233902931213,
        1.0,
        0.0,
        59.83854675292969,
        98.94307708740234,
        293.8957214355469,
        1.0
      ],
      "min": [
        -0.8352943658828735,
        -1.0000001192092896,
        -0.5657736659049988,
        0.0,
        -1.000000238418579,
        -0.986297070980072,
        -0.9984819293022156,
        0.0,
        -0.866025447845459,
        -0.836023211479187,
        -0.9999997615814209,
        0.0,
        -141.06578063964844,
        -98.94312286376953,
        -234.41217041015625,
        1.0
      ],
      "type": "MAT4"
    },
    {
      "bufferView": 0,
      "componentType": 5123,
      "count": 3281,
      "type": "VEC4"
    },
    {
      "bufferView": 4,
      "componentType": 5126,
      "count": 3281,
      "max": [
        1.0,
        0.49803921580314636,
        0.3176470398902893,
        0.1764705926179886
      ],
      "min": [
        0.3294117748737335,
        0.0,
        0.0,
        0.0
      ],
      "type": "VEC4"
    },
    {
      "bufferView": 0,
      "byteOffset": 26248,
      "componentType": 5123,
      "count": 72,
      "type": "VEC4"
    },
    {
      "bufferView": 4,
      "byteOffset": 52496,
      "componentType": 5126,
      "count": 72,
      "max": [
        1.0,
        0.13725490868091583,
        0.0470588244497776,
        0.0
      ],
      "min": [
        0.8392156958580017,
        0.0,
        0.0,
        0.0
      ],
      "type": "VEC4"
    },
    {
      "bufferView": 0,
      "byteOffset": 26824,
      "componentType": 5123,
      "count": 40,
      "type": "VEC4"
    },
    {
      "bufferView": 4,
      "byteOffset": 53648,
      "componentType": 5126,
      "count": 40,
      "max": [
        1.0,
        0.0,
        0.0,
        0.0
      ],
      "min": [
        1.0,
        0.0,
        0.0,
        0.0
      ],
      "type": "VEC4"
    },
    {
      "bufferView": 0,
      "byteOffset": 27144,
      "componentType": 5123,
      "count": 254,
      "type": "VEC4"
    },
    {
      "bufferView": 4,
      "byteOffset": 54288,
      "componentType": 5126,
      "count": 254,
      "max": [
        1.0,
        0.49803921580314636,
        0.0,
        0.0
      ],
      "min": [
        0.501960813999176,
        0.0,
        0.0,
        0.0
      ],
      "type": "VEC4"
    },
    {
      "bufferView": 0,
      "byteOffset": 29176,
      "componentType": 5123,
      "count": 552,
      "type": "VEC4"
    },
    {
      "bufferView": 4,
      "byteOffset": 58352,
      "componentType": 5126,
      "count": 552,
      "max": [
        1.0,
        0.49803921580314636,
        0.08627451211214066,
        0.0
      ],
      "min": [
        0.501960813999176,
        0.0,
        0.0,
        0.0
      ],
      "type": "VEC4"
    }
  ],
  "asset": {
    "extras": {
      "author": "juliocesar012 (https://sketchfab.com/jsuliocesar012)",
      "license": "CC-BY-4.0 (http://creativecommons.org/licenses/by/4.0/)",
      "source": "https://sketchfab.com/3d-models/pikachu-gigantamax-4c0c021a506d46b0833dae7456d1264c",
      "title": "Pikachu (Gigantamax)"
    },
    "generator": "Sketchfab-14.73.0",
    "version": "2.0"
  },
  "bufferViews": [
    {
      "buffer": 0,
      "byteLength": 33592,
      "byteStride": 8,
      "name": "shortBufferViews",
      "target": 34962
    },
    {
      "buffer": 0,
      "byteLength": 77064,
      "byteOffset": 33592,
      "name": "floatBufferViews",
      "target": 34963
    },
    {
      "buffer": 0,
      "byteLength": 33592,
      "byteOffset": 110656,
      "byteStride": 8,
      "name": "floatBufferViews",
      "target": 34962
    },
    {
      "buffer": 0,
      "byteLength": 100776,
      "byteOffset": 144248,
      "byteStride": 12,
      "name": "floatBufferViews",
      "target": 34962
    },
    {
      "buffer": 0,
      "byteLength": 67184,
      "byteOffset": 245024,
      "byteStride": 16,
      "name": "floatBufferViews",
      "target": 34962
    },
    {
      "buffer": 0,
      "byteLength": 4608,
      "byteOffset": 312208,
      "name": "floatBufferViews"
    }
  ],
  "buffers": [
    {
      "byteLength": 316816,
      "uri": "scene.bin"
    }
  ],
  "images": [
    {
      "uri": "textures/BodyA00_baseColor.png"
    },
    {
      "uri": "textures/BodyB_baseColor.png"
    },
    {
      "uri": "textures/material_baseColor.png"
    }
  ],
  "materials": [
    {
      "doubleSided": true,
      "name": "BodyA00",
      "pbrMetallicRoughness": {
        "baseColorTexture": {
          "index": 0
        },
        "metallicFactor": 0.0,
        "roughnessFactor": 0.8929713596497552
      }
    },
    {
      "doubleSided": true,
      "name": "BodyB",
      "pbrMetallicRoughness": {
        "baseColorTexture": {
          "index": 1
        },
        "metallicFactor": 0.0,
        "roughnessFactor": 0.8929713596497552
      }
    },
    {
      "doubleSided": true,
      "name": "material",
      "pbrMetallicRoughness": {
        "baseColorTexture": {
          "index": 2
        },
        "metallicFactor": 0.0,
        "roughnessFactor": 0.8929713596497552
      }
    },
    {
      "doubleSided": true,
      "name": "BodyA02",
      "pbrMetallicRoughness": {
        "baseColorFactor": [
          0.003987327280517659,
          0.0036319331638993463,
          0.0036319331638993463,
          1.0
        ],
        "metallicFactor": 0.0,
        "roughnessFactor": 0.8929713596497552
      }
    },
    {
      "doubleSided": true,
      "name": "BodyA01",
      "pbrMetallicRoughness": {
        "baseColorTexture": {
          "index": 0
        },
        "metallicFactor": 0.0,
        "roughnessFactor": 0.8929713596497552
      }
    }
  ],
  "meshes": [
    {
      "name": "pm0025_81_00_BodySkin_BodyA00_0",
      "primitives": [
        {
          "attributes": {
            "JOINTS_0": 21,
            "NORMAL": 1,
            "POSITION": 0,
            "TEXCOORD_0": 2,
            "TEXCOORD_1": 2,
            "WEIGHTS_0": 22
          },
          "indices": 3,
          "material": 0,
          "mode": 4
        }
      ]
    },
    {
      "name": "pm0025_81_00_BodySkin_BodyB_0",
      "primitives": [
        {
          "attributes": {
            "JOINTS_0": 23,
            "NORMAL": 5,
            "POSITION": 4,
            "TEXCOORD_0": 6,
            "TEXCOORD_1": 6,
            "WEIGHTS_0": 24
          },
          "indices": 7,
          "material": 1,
          "mode": 4
        }
      ]
    },
    {
      "name": "pm0025_81_00_BodySkin_Eye_0",
      "primitives": [
        {
          "attributes": {
            "JOINTS_0": 25,
            "NORMAL": 9,
            "POSITION": 8,
            "TEXCOORD_0": 10,
            "TEXCOORD_1": 10,
            "WEIGHTS_0": 26
          },
          "indices": 11,
          "material": 2,
          "mode": 4
        }
      ]
    },
    {
      "name": "pm0025_81_00_BodySkin_BodyA02_0",
      "primitives": [
        {
          "attributes": {
            "JOINTS_0": 27,
            "NORMAL": 13,
            "POSITION": 12,
            "TEXCOORD_0": 14,
            "TEXCOORD_1": 14,
            "WEIGHTS_0": 28
          },
          "indices": 15,
          "material": 3,
          "mode": 4
        }
      ]
    },
    {
      "name": "pm0025_81_00_TailSkin_BodyA01_0",
      "primitives": [
        {
          "attributes": {
            "JOINTS_0": 29,
            "NORMAL": 17,
            "POSITION": 16,
            "TEXCOORD_0": 18,
            "TEXCOORD_1": 18,
            "WEIGHTS_0": 30
          },
          "indices": 19,
          "material": 4,
          "mode": 4
        }
      ]
    }
  ],
  "nodes": [
    {
      "children": [
        1
      ],
      "matrix": [
        1.0,
        0.0,
        0.0,
        0.0,
        0.0,
        2.220446049250313e-16,
        -1.0,
        0.0,
        0.0,
        1.0,
        2.220446049250313e-16,
        0.0,
        0.0,
        0.0,
        0.0,
        1.0
      ],
      "name": "Sketchfab_model"
    },
    {
      "children": [
        2
      ],
      "matrix": [
        0.02539999969303608,
        0.0,
        0.0,
        0.0,
        0.0,
        0.0,
        0.02539999969303608,
        0.0,
        0.0,
        -0.02539999969303608,
        0.0,
        0.0,
        0.0,
        0.0,
        0.0,
        1.0
      ],
      "name": "5ab9f45acc7c4401be0917d5fbfbd4e2.fbx"
    },
    {
      "children": [
        3
      ],
      "name": "RootNode"
    },
    {
      "children": [
        4,
        6,
        7,
        8,
        9,
        11,
        5,
        10
      ],
      "name": "Object_3"
    },
    {
      "children": [
        12
      ],
      "name": "_rootJoint"
    },
    {
      "matrix": [
        1.0,
        -1.0339757656912846e-24,
        2.710505431213761e-20,
        0.0,
        2.710505431213761e-20,
        6.123233995736766e-17,
        -1.0,
        0.0,
        1.033975765689625e-24,
        1.0,
        6.123233995736766e-17,
        0.0,
        1.0842021724855044e-19,
        -1.4210854715202004e-14,
        -4.440892098500626e-16,
        1.0
      ],
      "name": "Object_5"
    },
    {
      "mesh": 0,
      "name": "Object_6",
      "skin": 0
    },
    {
      "mesh": 1,
      "name": "Object_7",
      "skin": 0
    },
    {
      "mesh": 2,
      "name": "Object_8",
      "skin": 0
    },
    {
      "mesh": 3,
      "name": "Object_9",
      "skin": 0
    },
    {
      "matrix": [
        1.0,
        -1.3999414667594357e-38,
        0.0,
        0.0,
        8.572169181302968e-55,
        6.123233995736766e-17,
        -1.0,
        0.0,
        1.3999414667594357e-38,
        1.0,
        6.123233995736766e-17,
        0.0,
        0.0,
        -3.552713678800501e-15,
        0.0,
        1.0
      ],
      "name": "Object_10"
    },
    {
      "mesh": 4,
      "name": "Object_11",
      "skin": 0
    },
    {
      "children": [
        13,
        81,
        82
      ],
      "name": "pm0025_81_00_01"
    },
    {
      "children": [
        14,
        80
      ],
      "name": "Origin_02"
    },
    {
      "children": [
        15,
        49
      ],
      "name": "Waist_03",
      "rotation": [
        0.0,
        0.0,
        0.7071066498756409,
        0.70710688829422
      ],
      "scale": [
        0.9999999403953552,
        0.9999999403953552,
        1.0
      ],
      "translation": [
        6.706172943349298e-12,
        59.839500427246094,
        -6.227200031280518
      ]
    },
    {
      "children": [
        16,
        47,
        48
      ],
      "name": "Spine1_04",
      "rotation": [
        1.4365790779180543e-09,
        -0.039259832352399826,
        -3.014497451658826e-08,
        0.9992291331291199
      ],
      "translation": [
        0.000972747802734375,
        3.637978807091713e-12,
        0.0
      ]
    },
    {
      "children": [
        17,
        31,
        39
      ],
      "name": "Spine2_05",
      "rotation": [
        1.2523203807290884e-08,
        -0.056799598038196564,
        2.8407832530774613e-08,
        0.9983856081962585
      ],
      "scale": [
        0.9999999403953552,
        0.9999999403953552,
        1.0
      ],
      "translation": [
        18.06391143798828,
        7.275957614183426e-12,
        -9.5367431640625e-07
      ]
    },
    {
      "children": [
        18
      ],
      "name": "Neck_06",
      "rotation": [
        2.356660644409203e-09,
        -0.0501420795917511,
        -4.69850069961808e-09,
        0.9987421035766602
      ],
      "scale": [
        0.9999999403953552,
        1.0,
        1.0
      ],
      "translation": [
        20.894363403320313,
        4.001776687800884e-11,
        1.9073486328125e-06
      ]
    },
    {
      "children": [
        19,
        20,
        22,
        24,
        25,
        26,
        27,
        28,
        29,
        30
      ],
      "name": "Head_07",
      "rotation": [
        -2.021204315028058e-09,
        0.14573779702186584,
        5.516033851904467e-09,
        0.9893232583999634
      ],
      "scale": [
        1.0000001192092896,
        1.0,
        1.0000001192092896
      ],
      "translation": [
        14.402656555175781,
        3.637978807091713e-12,
        -1.9073486328125e-06
      ]
    },
    {
      "name": "Jaw_08",
      "rotation": [
        0.6693028807640076,
        -1.6092647570076224e-07,
        0.7429896593093872,
        1.3272718035750586e-07
      ],
      "scale": [
        1.0000001192092896,
        0.9999999403953552,
        1.0000001192092896
      ],
      "translation": [
        6.18328857421875,
        1.2732925824820995e-11,
        16.27873992919922
      ]
    },
    {
      "children": [
        21
      ],
      "name": "LEar1_09",
      "rotation": [
        0.06828644126653671,
        0.12632179260253906,
        -0.47063538432121277,
        0.8705642223358154
      ],
      "scale": [
        0.9999999403953552,
        1.0,
        1.0
      ],
      "translation": [
        25.8505859375,
        -30.16300392150879,
        12.009063720703125
      ]
    },
    {
      "name": "LEar2_010",
      "rotation": [
        1.4901160305669237e-08,
        -1.1175871783564162e-08,
        -4.470348358154297e-08,
        1.0
      ],
      "scale": [
        0.9999999403953552,
        1.0,
        1.0000001192092896
      ],
      "translation": [
        22.46441650390625,
        1.52587890625e-05,
        0.0
      ]
    },
    {
      "children": [
        23
      ],
      "name": "REar1_011",
      "rotation": [
        -0.06828644126653671,
        0.12632183730602264,
        0.4706353545188904,
        0.8705642819404602
      ],
      "scale": [
        0.9999999403953552,
        1.0000001192092896,
        1.0
      ],
      "translation": [
        25.8505859375,
        30.16300392150879,
        12.009073257446289
      ]
    },
    {
      "name": "REar2_012",
      "rotation": [
        -4.4703469370688254e-08,
        -1.8626458597736928e-08,
        1.4901162614933128e-07,
        1.0
      ],
      "scale": [
        1.0,
        1.0000001192092896,
        0.9999998211860657
      ],
      "translation": [
        22.464324951171875,
        0.000213623046875,
        0.0
      ]
    },
    {
      "name": "EffMouth01_013",
      "rotation": [
        -5.1234435293758766e-15,
        -6.474692781921476e-09,
        -4.812932274944615e-09,
        1.0
      ],
      "scale": [
        1.0,
        0.9999999403953552,
        1.0
      ],
      "translation": [
        5.5,
        -3.637978807091713e-12,
        55.30000686645508
      ]
    },
    {
      "name": "EffOverHead01_014",
      "rotation": [
        -5.1234435293758766e-15,
        -6.474692781921476e-09,
        -4.812932274944615e-09,
        1.0
      ],
      "scale": [
        1.0,
        0.9999999403953552,
        1.0
      ],
      "translation": [
        41.40000915527344,
        3.637978807091713e-12,
        21.100000381469727
      ]
    },
    {
      "name": "EffWideUse01_015",
      "rotation": [
        -5.1234435293758766e-15,
        -6.474692781921476e-09,
        -4.812932274944615e-09,
        1.0
      ],
      "scale": [
        1.0,
        0.9999999403953552,
        1.0
      ],
      "translation": [
        3.4000015258789063,
        37.200008392333984,
        41.99999237060547
      ]
    },
    {
      "name": "EffEye01_016",
      "rotation": [
        -5.1234435293758766e-15,
        -6.474692781921476e-09,
        -4.812932274944615e-09,
        1.0
      ],
      "scale": [
        1.0,
        0.9999999403953552,
        1.0
      ],
      "translation": [
        19.999984741210938,
        23.100000381469727,
        42.899993896484375
      ]
    },
    {
      "name": "EffEye02_017",
      "rotation": [
        -5.1234435293758766e-15,
        -6.474692781921476e-09,
        -4.812932274944615e-09,
        1.0
      ],
      "scale": [
        1.0,
        0.9999999403953552,
        1.0
      ],
      "translation": [
        20.0,
        -23.100000381469727,
        42.899993896484375
      ]
    },
    {
      "name": "EffWideUse02_018",
      "rotation": [
        -5.1234435293758766e-15,
        -6.474692781921476e-09,
        -4.812932274944615e-09,
        1.0
      ],
      "scale": [
        1.0,
        0.9999999403953552,
        1.0
      ],
      "translation": [
        3.4000015258789063,
        -37.19999313354492,
        41.999996185302734
      ]
    },
    {
      "name": "EffHeadCenter01_019",
      "rotation": [
        -5.1234435293758766e-15,
        -6.474692781921476e-09,
        -4.812932274944615e-09,
        1.0
      ],
      "scale": [
        1.0,
        0.9999999403953552,
        1.0
      ],
      "translation": [
        10.800003051757813,
        -1.8189894035458565e-12,
        20.700000762939453
      ]
    },
    {
      "children": [
        32
      ],
      "name": "LShoulder_020",
      "rotation": [
        -0.29852598905563354,
        -0.12472344189882278,
        -0.7204873561859131,
        0.6133712530136108
      ],
      "scale": [
        1.0,
        0.9999999403953552,
        1.000000238418579
      ],
      "translation": [
        17.787368774414063,
        -12.699999809265137,
        3.7614660263061523
      ]
    },
    {
      "children": [
        33
      ],
      "name": "LArm_021",
      "rotation": [
        0.01485095638781786,
        -0.008757783100008965,
        0.021595709025859833,
        0.9996182322502136
      ],
      "scale": [
        1.0,
        0.9999999403953552,
        0.9999998211860657
      ],
      "translation": [
        33.35999298095703,
        -1.4210854715202004e-14,
        9.5367431640625e-07
      ]
    },
    {
      "children": [
        34
      ],
      "name": "LForeArm_022",
      "rotation": [
        3.352760913344355e-08,
        -3.259628655882807e-08,
        2.2351740014414645e-08,
        1.0
      ],
      "scale": [
        1.0,
        1.0000001192092896,
        1.0
      ],
      "translation": [
        18.01510238647461,
        7.62939453125e-06,
        4.76837158203125e-06
      ]
    },
    {
      "children": [
        35,
        36,
        38
      ],
      "name": "LHand_023",
      "rotation": [
        0.7064336538314819,
        0.030843591317534447,
        0.030843500047922134,
        0.706433892250061
      ],
      "scale": [
        1.0,
        1.0000001192092896,
        1.0000001192092896
      ],
      "translation": [
        12.346702575683594,
        1.52587890625e-05,
        -5.7220458984375e-06
      ]
    },
    {
      "name": "LFingerA_024",
      "rotation": [
        0.10762405395507813,
        -0.1702943593263626,
        0.5232868194580078,
        0.8280023336410522
      ],
      "scale": [
        1.0000001192092896,
        1.0,
        1.000000238418579
      ],
      "translation": [
        -0.20861053466796875,
        5.174461841583252,
        0.2570648193359375
      ]
    },
    {
      "children": [
        37
      ],
      "name": "LFingerB1_025",
      "rotation": [
        0.05335447937250137,
        -0.001795562682673335,
        -0.014640573412179947,
        0.9984667897224426
      ],
      "scale": [
        1.0000001192092896,
        1.0,
        1.000000238418579
      ],
      "translation": [
        3.2806930541992188,
        -0.6859312057495117,
        0.6516876220703125
      ]
    },
    {
      "name": "LFingerB2_026",
      "rotation": [
        4.656611807263289e-08,
        1.6763799237651256e-08,
        -5.89061386335743e-08,
        1.0
      ],
      "scale": [
        1.0000001192092896,
        1.0000001192092896,
        1.000000238418579
      ],
      "translation": [
        2.6576919555664063,
        -2.86102294921875e-06,
        -2.288818359375e-05
      ]
    },
    {
      "name": "EffHand02_027",
      "rotation": [
        -4.097817907222634e-08,
        -1.1175869119028903e-08,
        1.955776873785453e-08,
        1.0
      ],
      "scale": [
        1.0000001192092896,
        1.000000238418579,
        1.0000001192092896
      ],
      "translation": [
        5.0,
        -0.9999942779541016,
        4.399986267089844
      ]
    },
    {
      "children": [
        40
      ],
      "name": "RShoulder_028",
      "rotation": [
        0.29852595925331116,
        -0.12472347170114517,
        0.7204872369766235,
        0.6133713722229004
      ],
      "scale": [
        1.0,
        0.9999998807907104,
        1.0
      ],
      "translation": [
        17.787353515625,
        12.699999809265137,
        3.761465072631836
      ]
    },
    {
      "children": [
        41
      ],
      "name": "RArm_029",
      "rotation": [
        -0.014851074665784836,
        -0.008757858537137508,
        -0.02159574069082737,
        0.9996181130409241
      ],
      "scale": [
        0.9999998211860657,
        0.9999998807907104,
        0.9999999403953552
      ],
      "translation": [
        33.35999298095703,
        1.52587890625e-05,
        2.9087066650390625e-05
      ]
    },
    {
      "children": [
        42
      ],
      "name": "RForeArm_030",
      "rotation": [
        -1.862645504502325e-08,
        1.3830145917381742e-07,
        7.450585925994346e-09,
        1.0
      ],
      "scale": [
        0.9999997615814209,
        0.9999998807907104,
        0.9999998807907104
      ],
      "translation": [
        18.015106201171875,
        -7.62939453125e-06,
        -7.343292236328125e-05
      ]
    },
    {
      "children": [
        43,
        44,
        46
      ],
      "name": "RHand_031",
      "rotation": [
        -0.7064337134361267,
        0.030843492597341537,
        -0.030843621119856834,
        0.7064338326454163
      ],
      "scale": [
        1.0000003576278687,
        1.0000001192092896,
        1.0000001192092896
      ],
      "translation": [
        12.346691131591797,
        -2.288818359375e-05,
        4.2438507080078125e-05
      ]
    },
    {
      "name": "RFingerA_032",
      "rotation": [
        -0.10762378573417664,
        -0.17029406130313873,
        -0.5232868790626526,
        0.828002393245697
      ],
      "scale": [
        1.0000003576278687,
        1.000000238418579,
        1.0
      ],
      "translation": [
        -0.20859527587890625,
        -5.174439907073975,
        0.25705718994140625
      ]
    },
    {
      "children": [
        45
      ],
      "name": "RFingerB1_033",
      "rotation": [
        -0.053354643285274506,
        -0.0017954804934561253,
        0.0146403843536973,
        0.9984667897224426
      ],
      "scale": [
        1.0000001192092896,
        1.0000001192092896,
        1.0000001192092896
      ],
      "translation": [
        3.2807388305664063,
        0.6859302520751953,
        0.6516952514648438
      ]
    },
    {
      "name": "RFingerB2_034",
      "rotation": [
        5.587935447692871e-09,
        -1.862645371275562e-09,
        7.3923738241887804e-09,
        1.0
      ],
      "scale": [
        1.0,
        1.0,
        0.9999999403953552
      ],
      "translation": [
        2.6576614379882813,
        -4.2438507080078125e-05,
        -6.103515625e-05
      ]
    },
    {
      "name": "EffHand01_035",
      "rotation": [
        -2.2351736461700966e-08,
        2.2351738238057806e-08,
        1.979060293422208e-08,
        1.0
      ],
      "scale": [
        1.0000001192092896,
        1.0000001192092896,
        1.000000238418579
      ],
      "translation": [
        5.000007629394531,
        1.0000081062316895,
        4.399993896484375
      ]
    },
    {
      "name": "EffFront01_036",
      "rotation": [
        -6.256462015130637e-09,
        5.609608571485205e-16,
        -8.966102882368432e-08,
        1.0
      ],
      "scale": [
        1.0000001192092896,
        1.0,
        1.0
      ],
      "translation": [
        20.300003051757813,
        1.8189894035458565e-12,
        59.20000457763672
      ]
    },
    {
      "name": "EffCenter01_037",
      "rotation": [
        -6.256462015130637e-09,
        5.609608571485205e-16,
        -8.966102882368432e-08,
        1.0
      ],
      "scale": [
        1.0000001192092896,
        1.0,
        1.0
      ],
      "translation": [
        16.600013732910156,
        1.8189894035458565e-12,
        0.0
      ]
    },
    {
      "children": [
        50,
        51,
        70,
        75
      ],
      "name": "Hips_038",
      "rotation": [
        0.0,
        0.0,
        1.0,
        5.960463411724959e-08
      ],
      "scale": [
        0.9999999403953552,
        0.9999999403953552,
        1.0
      ],
      "translation": [
        -0.000972747802734375,
        3.637978807091713e-12,
        0.0
      ]
    },
    {
      "name": "FeelerA_039",
      "rotation": [
        0.0,
        -0.0,
        -1.4210858103333793e-14,
        1.0
      ],
      "scale": [
        0.9999998807907104,
        0.9999998807907104,
        1.0
      ],
      "translation": [
        0.0,
        0.0,
        6.227200031280518
      ]
    },
    {
      "children": [
        52
      ],
      "name": "Tail1_040",
      "rotation": [
        -1.633005375367702e-08,
        0.4226183593273163,
        -1.1923886233944359e-07,
        0.9063078761100769
      ],
      "scale": [
        0.9999999403953552,
        0.9999998807907104,
        0.9999997615814209
      ],
      "translation": [
        3.4045257568359375,
        -7.275957614183426e-12,
        -5.448800563812256
      ]
    },
    {
      "children": [
        53
      ],
      "name": "Tail2_041",
      "rotation": [
        -2.2410940658801337e-08,
        0.08715581148862839,
        3.712524687671248e-08,
        0.9961947202682495
      ],
      "scale": [
        1.0000001192092896,
        1.0,
        1.000000238418579
      ],
      "translation": [
        44.36341857910156,
        -1.8189894035458565e-11,
        3.814697265625e-06
      ]
    },
    {
      "children": [
        54
      ],
      "name": "Tail3_042",
      "rotation": [
        -2.1240300895897235e-07,
        0.8660253882408142,
        1.9243395854573464e-07,
        0.5
      ],
      "scale": [
        1.0000001192092896,
        0.9999999403953552,
        1.0
      ],
      "translation": [
        20.433002471923828,
        0.0,
        -7.105427357601002e-15
      ]
    },
    {
      "children": [
        55
      ],
      "name": "Tail4_043",
      "rotation": [
        -4.3886831946338134e-08,
        0.8660255074501038,
        3.058265107824809e-08,
        -0.4999998211860657
      ],
      "scale": [
        0.9999997615814209,
        0.9999998807907104,
        1.0
      ],
      "translation": [
        28.216995239257813,
        3.637978807091713e-12,
        0.0
      ]
    },
    {
      "children": [
        56
      ],
      "name": "Tail5_044",
      "rotation": [
        -1.8152027791984437e-07,
        0.8660253882408142,
        1.3482431882039236e-07,
        0.5000000596046448
      ],
      "scale": [
        1.000000238418579,
        1.0,
        1.0000001192092896
      ],
      "translation": [
        35.02801513671875,
        0.0,
        -1.4210854715202004e-14
      ]
    },
    {
      "children": [
        57
      ],
      "name": "Tail6_045",
      "rotation": [
        -1.2534979987322004e-07,
        0.866025447845459,
        -9.818017332463569e-08,
        -0.4999999403953552
      ],
      "scale": [
        1.0000001192092896,
        0.9999999403953552,
        1.0
      ],
      "translation": [
        36.000999450683594,
        -7.275957614183426e-12,
        1.4210854715202004e-14
      ]
    },
    {
      "children": [
        58
      ],
      "name": "Tail7_046",
      "rotation": [
        -2.783880859169585e-07,
        0.8660253882408142,
        2.6781802375808184e-07,
        0.5
      ],
      "scale": [
        1.0000003576278687,
        0.9999998807907104,
        1.0
      ],
      "translation": [
        36.974002838134766,
        -7.275957614183426e-12,
        0.0
      ]
    },
    {
      "children": [
        59
      ],
      "name": "Tail8_047",
      "rotation": [
        -4.10554257257445e-08,
        0.8660255074501038,
        -1.940171401315638e-08,
        -0.4999998211860657
      ],
      "scale": [
        1.0,
        1.0,
        0.9999998807907104
      ],
      "translation": [
        38.91999435424805,
        1.4551915228366852e-11,
        0.0
      ]
    },
    {
      "children": [
        60
      ],
      "name": "Tail9_048",
      "rotation": [
        -6.351476855570581e-08,
        0.8660253882408142,
        6.434314769876437e-08,
        0.5
      ],
      "scale": [
        0.9999998211860657,
        1.0000001192092896,
        1.0000001192092896
      ],
      "translation": [
        39.892982482910156,
        7.275957614183426e-12,
        3.0517578125e-05
      ]
    },
    {
      "children": [
        61
      ],
      "name": "Tail10_049",
      "rotation": [
        8.833808684549638e-10,
        0.866025447845459,
        -2.5817941118333465e-09,
        -0.4999999403953552
      ],
      "scale": [
        1.0,
        0.9999999403953552,
        1.0
      ],
      "translation": [
        40.865989685058594,
        1.4551915228366852e-11,
        2.842170943040401e-14
      ]
    },
    {
      "children": [
        62
      ],
      "name": "Tail11_050",
      "rotation": [
        -9.59298773750561e-08,
        0.8660253882408142,
        2.263998339913087e-07,
        0.5000000596046448
      ],
      "scale": [
        0.9999998807907104,
        1.0000001192092896,
        1.0000001192092896
      ],
      "translation": [
        41.8389892578125,
        -3.637978807091713e-12,
        2.842170943040401e-14
      ]
    },
    {
      "children": [
        63
      ],
      "name": "Tail12_051",
      "rotation": [
        -1.1656779719260157e-07,
        0.866025447845459,
        -3.82644351759609e-08,
        -0.49999991059303284
      ],
      "scale": [
        1.000000238418579,
        0.9999998807907104,
        1.0
      ],
      "translation": [
        42.81199645996094,
        0.0,
        0.0
      ]
    },
    {
      "children": [
        64
      ],
      "name": "Tail13_052",
      "rotation": [
        5.4553659367684304e-08,
        0.866025447845459,
        5.6612481813544946e-08,
        0.5000001192092896
      ],
      "scale": [
        1.0,
        1.0,
        0.9999999403953552
      ],
      "translation": [
        43.78498077392578,
        -7.275957614183426e-12,
        -2.842170943040401e-14
      ]
    },
    {
      "children": [
        65
      ],
      "name": "Tail14_053",
      "rotation": [
        6.996300783157494e-08,
        -0.8660253882408142,
        6.835318799858214e-08,
        0.5000000596046448
      ],
      "scale": [
        1.0,
        1.0000001192092896,
        1.000000238418579
      ],
      "translation": [
        42.81199645996094,
        2.9103830456733704e-11,
        0.0
      ]
    },
    {
      "children": [
        66,
        69
      ],
      "name": "Tail15_054",
      "rotation": [
        -0.5051217079162598,
        1.2488916922848148e-07,
        0.8630481362342834,
        1.16583587228547e-08
      ],
      "scale": [
        1.0000001192092896,
        0.9999999403953552,
        1.0
      ],
      "translation": [
        41.83900451660156,
        1.4551915228366852e-11,
        -3.0517578125e-05
      ]
    },
    {
      "children": [
        67,
        68
      ],
      "name": "Tail16_055",
      "rotation": [
        -0.5000002384185791,
        4.0051642002936205e-08,
        0.8660252690315247,
        9.930925415346792e-08
      ],
      "scale": [
        1.0,
        1.0000001192092896,
        1.000000238418579
      ],
      "translation": [
        53.14044189453125,
        -1.4551915228366852e-11,
        5.684341886080802e-14
      ]
    },
    {
      "name": "EffTail01_00",
      "rotation": [
        -5.1017760682725566e-08,
        7.450580596923828e-08,
        4.097813999237587e-08,
        1.0
      ],
      "scale": [
        1.0,
        1.0,
        1.0000001192092896
      ],
      "translation": [
        94.20001220703125,
        0.0,
        0.0
      ]
    },
    {
      "name": "EffAttack01_01_056",
      "rotation": [
        -5.1017760682725566e-08,
        7.450580596923828e-08,
        4.097813999237587e-08,
        1.0
      ],
      "scale": [
        1.0,
        1.0,
        1.0000001192092896
      ],
      "translation": [
        41.30000305175781,
        6.300000190734863,
        0.0
      ]
    },
    {
      "name": "EffGcloud01_057",
      "rotation": [
        -9.1345233599327e-09,
        -4.190952029858863e-09,
        1.860462539582386e-08,
        1.0
      ],
      "scale": [
        0.9999999403953552,
        1.0,
        0.9999999403953552
      ],
      "translation": [
        45.19999694824219,
        0.0,
        -12.100006103515625
      ]
    },
    {
      "children": [
        71
      ],
      "name": "LThigh_058",
      "rotation": [
        -0.18589147925376892,
        -0.48526737093925476,
        0.10641089826822281,
        0.8477243781089783
      ],
      "scale": [
        1.0000003576278687,
        0.9999999403953552,
        1.0000001192092896
      ],
      "translation": [
        8.986011505126953,
        33.1143913269043,
        1.0404930114746094
      ]
    },
    {
      "children": [
        72
      ],
      "name": "LLeg_059",
      "rotation": [
        9.832773883999835e-08,
        0.8563125133514404,
        -2.5714538764987083e-07,
        0.5164579749107361
      ],
      "scale": [
        0.9999999403953552,
        1.0,
        1.0000001192092896
      ],
      "translation": [
        38.40739059448242,
        -3.814697265625e-06,
        -7.62939453125e-06
      ]
    },
    {
      "children": [
        73
      ],
      "name": "LFoot_060",
      "rotation": [
        3.535435055823655e-08,
        0.9618211984634399,
        6.980248912213938e-08,
        -0.27367866039276123
      ],
      "scale": [
        0.9999998807907104,
        1.0000001192092896,
        1.0
      ],
      "translation": [
        42.733734130859375,
        7.105427357601002e-15,
        9.5367431640625e-07
      ]
    },
    {
      "children": [
        74
      ],
      "name": "LToe_061",
      "rotation": [
        -1.862636445082444e-08,
        5.960465898624534e-08,
        2.980230462412692e-08,
        1.0
      ],
      "scale": [
        1.0000001192092896,
        1.0000001192092896,
        1.0
      ],
      "translation": [
        20.251277923583984,
        7.62939453125e-06,
        -6.287598609924316
      ]
    },
    {
      "name": "EffFoot02_062",
      "rotation": [
        6.332987823043368e-08,
        7.4505530633928174e-09,
        2.9802309953197437e-08,
        1.0
      ],
      "scale": [
        1.0000001192092896,
        0.9999998807907104,
        1.0
      ],
      "translation": [
        3.3000011444091797,
        -7.62939453125e-06,
        -2.700000047683716
      ]
    },
    {
      "children": [
        76
      ],
      "name": "RThigh_063",
      "rotation": [
        0.18589171767234802,
        -0.48526713252067566,
        -0.10641089081764221,
        0.8477246165275574
      ],
      "scale": [
        1.0000001192092896,
        1.0,
        0.9999999403953552
      ],
      "translation": [
        8.986019134521484,
        -33.1143913269043,
        1.0404901504516602
      ]
    },
    {
      "children": [
        77
      ],
      "name": "RLeg_064",
      "rotation": [
        2.2932292509381114e-08,
        0.85631263256073,
        -1.6705679684037023e-07,
        0.5164577960968018
      ],
      "scale": [
        1.0000001192092896,
        1.0000001192092896,
        0.9999999403953552
      ],
      "translation": [
        38.4073486328125,
        -4.57763671875e-05,
        1.52587890625e-05
      ]
    },
    {
      "children": [
        78
      ],
      "name": "RFoot_065",
      "rotation": [
        -1.4568061601494264e-07,
        0.9618211984634399,
        -2.1953969309151944e-08,
        -0.27367863059043884
      ],
      "scale": [
        0.9999999403953552,
        1.0000001192092896,
        1.0
      ],
      "translation": [
        42.73373031616211,
        7.2479248046875e-05,
        3.3855438232421875e-05
      ]
    },
    {
      "children": [
        79
      ],
      "name": "RToe_066",
      "rotation": [
        8.860576272695653e-09,
        -1.49011496475282e-08,
        -7.45057349149647e-08,
        1.0
      ],
      "scale": [
        1.000000238418579,
        1.0000003576278687,
        1.0000001192092896
      ],
      "translation": [
        20.251327514648438,
        -2.288818359375e-05,
        -6.287590026855469
      ]
    },
    {
      "name": "EffFoot01_067",
      "rotation": [
        1.00308616393565e-13,
        1.1175880665348359e-08,
        -7.45057349149647e-08,
        1.0
      ],
      "scale": [
        1.0000001192092896,
        1.0000003576278687,
        1.0
      ],
      "translation": [
        3.299999237060547,
        -7.62939453125e-06,
        -2.700000047683716
      ]
    },
    {
      "name": "EffShoot01_01_068",
      "translation": [
        6.300000190734863,
        29.200000762939453,
        173.60000610351563
      ]
    },
    {
      "name": "pm0025_81_00_BodySkin_069"
    },
    {
      "name": "pm0025_81_00_TailSkin_070"
    }
  ],
  "samplers": [
    {
      "magFilter": 9729,
      "minFilter": 9987,
      "wrapS": 10497,
      "wrapT": 10497
    }
  ],
  "scene": 0,
  "scenes": [
    {
      "name": "Sketchfab_Scene",
      "nodes": [
        0
      ]
    }
  ],
  "skins": [
    {
      "inverseBindMatrices": 20,
      "joints": [
        4,
        12,
        13,
        14,
        15,
        16,
        17,
        18,
        19,
        20,
        21,
        22,
        23,
        24,
        25,
        26,
        27,
        28,
        29,
        30,
        31,
        32,
        33,
        34,
        35,
        36,
        37,
        38,
        39,
        40,
        41,
        42,
        43,
        44,
        45,
        46,
        47,
        48,
        49,
        50,
        51,
        52,
        53,
        54,
        55,
        56,
        57,
        58,
        59,
        60,
        61,
        62,
        63,
        64,
        65,
        66,
        67,
        68,
        69,
        70,
        71,
        72,
        73,
        74,
        75,
        76,
        77,
        78,
        79,
        80,
        81,
        82
      ],
      "skeleton": 4
    }
  ],
  "textures": [
    {
      "sampler": 0,
      "source": 0
    },
    {
      "sampler": 0,
      "source": 1
    },
    {
      "sampler": 0,
      "source": 2
    }
  ]
}
