{
  "accessors": [
    {
      "bufferView": 3,
      "componentType": 5126,
      "count": 435,
      "max": [
        3.2465503215789795,
        21.69890785217285,
        4.254140853881836
      ],
      "min": [
        -4.862529277801514,
        -2.5683231353759766,
        -3.856119155883789
      ],
      "type": "VEC3"
    },
    {
      "bufferView": 3,
      "byteOffset": 5220,
      "componentType": 5126,
      "count": 435,
      "max": [
        0.9999905228614807,
        0.9968725442886353,
        0.9970839023590088
      ],
      "min": [
        -0.9999498128890991,
        -1.0,
        -0.9802335500717163
      ],
      "type": "VEC3"
    },
    {
      "bufferView": 4,
      "componentType": 5126,
      "count": 435,
      "max": [
        0.9987621307373047,
        0.8410679697990417,
        0.9999969601631165,
        1.0
      ],
      "min": [
        -0.9910920858383179,
        -0.5837867259979248,
        -0.9999994039535522,
        -1.0
      ],
      "type": "VEC4"
    },
    {
      "bufferView": 2,
      "componentType": 5126,
      "count": 435,
      "max": [
        0.998046875,
        0.9780426025390625
      ],
      "min": [
        0.004833221435546875,
        -0.0458984375
      ],
      "type": "VEC2"
    },
    {
      "bufferView": 1,
      "componentType": 5125,
      "count": 1578,
      "type": "SCALAR"
    },
    {
      "bufferView": 3,
      "byteOffset": 10440,
      "componentType": 5126,
      "count": 605,
      "max": [
        15.512990951538086,
        34.478118896484375,
        13.45041275024414
      ],
      "min": [
        -19.985462188720703,
        14.38487720489502,
        -14.00373649597168
      ],
      "type": "VEC3"
    },
    {
      "bufferView": 3,
      "byteOffset": 17700,
      "componentType": 5126,
      "count": 605,
      "max": [
        0.98002028465271,
        0.9995107650756836,
        0.9912158846855164
      ],
      "min": [
        -0.9758332371711731,
        -0.9998818635940552,
        -0.9885441660881042
      ],
      "type": "VEC3"
    },
    {
      "bufferView": 4,
      "byteOffset": 6960,
      "componentType": 5126,
      "count": 605,
      "max": [
        0.9898526668548584,
        0.9986604452133179,
        0.8496370315551758,
        1.0
      ],
      "min": [
        -0.999944806098938,
        -0.9946728348731995,
        -0.8890701532363892,
        -1.0
      ],
      "type": "VEC4"
    },
    {
      "bufferView": 2,
      "byteOffset": 3480,
      "componentType": 5126,
      "count": 605,
      "max": [
        0.9967498183250427,
        0.998992919921875
      ],
      "min": [
        0.004791332874447107,
        0.0018463134765625
      ],
      "type": "VEC2"
    },
    {
      "bufferView": 1,
      "byteOffset": 6312,
      "componentType": 5125,
      "count": 2100,
      "type": "SCALAR"
    },
    {
      "bufferView": 5,
      "componentType": 5126,
      "count": 2,
      "max": [
        1.0,
        0.0,
        0.0,
        0.0,
        0.0,
        1.0,
        6.123234262925839e-17,
        0.0,
        0.0,
        0.0,
        1.0,
        0.0,
        0.0,
        0.0,
        0.0,
        1.0
      ],
      "min": [
        1.0,
        0.0,
        0.0,
        0.0,
        0.0,
        1.0,
        0.0,
        0.0,
        0.0,
        -6.123234262925839e-17,
        1.0,
        0.0,
        0.0,
        0.0,
        0.0,
        1.0
      ],
      "type": "MAT4"
    },
    {
      "bufferView": 0,
      "componentType": 5123,
      "count": 435,
      "type": "VEC4"
    },
    {
      "bufferView": 4,
      "byteOffset": 16640,
      "componentType": 5126,
      "count": 435,
      "max": [
        1.0,
        0.0,
        0.0,
        0.0
      ],
      "min": [
        1.0,
        0.0,
        0.0,
        0.0
      ],
      "type": "VEC4"
    },
    {
      "bufferView": 0,
      "byteOffset": 3480,
      "componentType": 5123,
      "count": 605,
      "type": "VEC4"
    },
    {
      "bufferView": 4,
      "byteOffset": 23600,
      "componentType": 5126,
      "count": 605,
      "max": [
        1.0,
        0.0,
        0.0,
        0.0
      ],
      "min": [
        1.0,
        0.0,
        0.0,
        0.0
      ],
      "type": "VEC4"
    }
  ],
  "asset": {
    "extras": {
      "author": "StinkySkunk12 (https://sketchfab.com/Bearfnf)",
      "license": "SKETCHFAB Standard (https://sketchfab.com/licenses)",
      "source": "https://sketchfab.com/3d-models/animal-crossing-palm-tree-background-8b58c88e56a94663a2a8787ec15d0d6c",
      "title": "Animal Crossing Palm Tree (Background)"
    },
    "generator": "Sketchfab-17.15.0",
    "version": "2.0"
  },
  "bufferViews": [
    {
      "buffer": 0,
      "byteLength": 8320,
      "byteStride": 8,
      "name": "shortBufferViews",
      "target": 34962
    },
    {
      "buffer": 0,
      "byteLength": 14712,
      "byteOffset": 8320,
      "name": "floatBufferViews",
      "target": 34963
    },
    {
      "buffer": 0,
      "byteLength": 8320,
      "byteOffset": 23032,
      "byteStride": 8,
      "name": "floatBufferViews",
      "target": 34962
    },
    {
      "buffer": 0,
      "byteLength": 24960,
      "byteOffset": 31352,
      "byteStride": 12,
      "name": "floatBufferViews",
      "target": 34962
    },
    {
      "buffer": 0,
      "byteLength": 33280,
      "byteOffset": 56312,
      "byteStride": 16,
      "name": "floatBufferViews",
      "target": 34962
    },
    {
      "buffer": 0,
      "byteLength": 128,
      "byteOffset": 89592,
      "name": "floatBufferViews"
    }
  ],
  "buffers": [
    {
      "byteLength": 89720,
      "uri": "scene.bin"
    }
  ],
  "extensionsUsed": [
    "KHR_materials_specular"
  ],
  "images": [
    {
      "uri": "textures/mIdrTreePalmTrunk_baseColor.png"
    },
    {
      "uri": "textures/mIdrTreePalmTrunk_metallicRoughness.png"
    },
    {
      "uri": "textures/mIdrTreePalmTrunk_normal.png"
    },
    {
      "uri": "textures/mIdrTreePalmLeaf_baseColor.png"
    },
    {
      "uri": "textures/mIdrTreePalmLeaf_metallicRoughness.png"
    },
    {
      "uri": "textures/mIdrTreePalmLeaf_normal.png"
    }
  ],
  "materials": [
    {
      "alphaMode": "BLEND",
      "doubleSided": true,
      "extensions": {
        "KHR_materials_specular": {
          "specularColorFactor": [
            1.0,
            1.0,
            1.0
          ],
          "specularFactor": 0.5470492862454438
        }
      },
      "name": "mIdrTreePalmTrunk",
      "normalTexture": {
        "index": 2
      },
      "occlusionTexture": {
        "index": 1
      },
      "pbrMetallicRoughness": {
        "baseColorTexture": {
          "index": 0
        },
        "metallicFactor": 0.0,
        "metallicRoughnessTexture": {
          "index": 1
        }
      }
    },
    {
      "alphaMode": "BLEND",
      "doubleSided": true,
      "name": "mIdrTreePalmLeaf",
      "normalTexture": {
        "index": 5
      },
      "occlusionTexture": {
        "index": 4
      },
      "pbrMetallicRoughness": {
        "baseColorTexture": {
          "index": 3
        },
        "metallicFactor": 0.0,
        "metallicRoughnessTexture": {
          "index": 4
        }
      }
    }
  ],
  "meshes": [
    {
      "name": "group83_pCylinder51__mIdrTreePalmTrunk_mIdrTreePalmTrunk_0",
      "primitives": [
        {
          "attributes": {
            "JOINTS_0": 11,
            "NORMAL": 1,
            "POSITION": 0,
            "TANGENT": 2,
            "TEXCOORD_0": 3,
            "TEXCOORD_1": 3,
            "TEXCOORD_2": 3,
            "WEIGHTS_0": 12
          },
          "indices": 4,
          "material": 0,
          "mode": 4
        }
      ]
    },
    {
      "name": "pCylinder12_1__mIdrTreePalmLeaf_mIdrTreePalmLeaf_0",
      "primitives": [
        {
          "attributes": {
            "JOINTS_0": 13,
            "NORMAL": 6,
            "POSITION": 5,
            "TANGENT": 7,
            "TEXCOORD_0": 8,
            "TEXCOORD_1": 8,
            "TEXCOORD_2": 8,
            "WEIGHTS_0": 14
          },
          "indices": 9,
          "material": 1,
          "mode": 4
        }
      ]
    }
  ],
  "nodes": [
    {
      "children": [
        1
      ],
      "matrix": [
        1.0,
        0.0,
        0.0,
        0.0,
        0.0,
        3.828568672208042e-16,
        -1.0,
        0.0,
        0.0,
        1.0,
        3.828568672208042e-16,
        0.0,
        0.0,
        0.0,
        0.0,
        1.0
      ],
      "name": "Sketchfab_model"
    },
    {
      "children": [
        2
      ],
      "matrix": [
        0.02539999969303608,
        0.0,
        0.0,
        0.0,
        0.0,
        0.0,
        0.02539999969303608,
        0.0,
        0.0,
        -0.02539999969303608,
        0.0,
        0.0,
        0.0,
        0.0,
        0.0,
        1.0
      ],
      "name": "IdrObjTreePalm00.fbx"
    },
    {
      "children": [
        3
      ],
      "name": "RootNode"
    },
    {
      "children": [
        4,
        6,
        8,
        5,
        7
      ],
      "name": "Object_3"
    },
    {
      "children": [
        9
      ],
      "name": "_rootJoint"
    },
    {
      "matrix": [
        1.0,
        0.0,
        0.0,
        0.0,
        0.0,
        6.123233995736766e-17,
        -1.0,
        0.0,
        0.0,
        1.0,
        6.123233995736766e-17,
        0.0,
        0.0,
        0.0,
        0.0,
        1.0
      ],
      "name": "Object_5"
    },
    {
      "mesh": 0,
      "name": "Object_6",
      "skin": 0
    },
    {
      "matrix": [
        1.0,
        0.0,
        0.0,
        0.0,
        0.0,
        6.123233995736766e-17,
        -1.0,
        0.0,
        0.0,
        1.0,
        6.123233995736766e-17,
        0.0,
        0.0,
        0.0,
        0.0,
        1.0
      ],
      "name": "Object_7"
    },
    {
      "mesh": 1,
      "name": "Object_8",
      "skin": 0
    },
    {
      "name": "Root_00"
    }
  ],
  "samplers": [
    {
      "magFilter": 9729,
      "minFilter": 9987,
      "wrapS": 10497,
      "wrapT": 10497
    }
  ],
  "scene": 0,
  "scenes": [
    {
      "name": "Sketchfab_Scene",
      "nodes": [
        0
      ]
    }
  ],
  "skins": [
    {
      "inverseBindMatrices": 10,
      "joints": [
        4,
        9
      ],
      "skeleton": 4
    }
  ],
  "textures": [
    {
      "sampler": 0,
      "source": 0
    },
    {
      "sampler": 0,
      "source": 1
    },
    {
      "sampler": 0,
      "source": 2
    },
    {
      "sampler": 0,
      "source": 3
    },
    {
      "sampler": 0,
      "source": 4
    },
    {
      "sampler": 0,
      "source": 5
    }
  ]
}
