{
  "accessors": [
    {
      "bufferView": 3,
      "componentType": 5126,
      "count": 670,
      "max": [
        25.261104583740234,
        51.15666198730469,
        32.13243103027344
      ],
      "min": [
        -25.743736267089844,
        -1.578322410583496,
        -5.456798553466797
      ],
      "type": "VEC3"
    },
    {
      "bufferView": 3,
      "byteOffset": 8040,
      "componentType": 5126,
      "count": 670,
      "max": [
        0.9999709725379944,
        0.9989557266235352,
        0.9986776113510132
      ],
      "min": [
        -0.9998602867126465,
        -1.0,
        -0.9904612302780151
      ],
      "type": "VEC3"
    },
    {
      "bufferView": 4,
      "componentType": 5126,
      "count": 670,
      "max": [
        1.0,
        0.9910297989845276,
        0.9987648725509644,
        1.0
      ],
      "min": [
        -0.999975860118866,
        -0.9554684162139893,
        -0.9998831748962402,
        -1.0
      ],
      "type": "VEC4"
    },
    {
      "bufferView": 2,
      "componentType": 5126,
      "count": 670,
      "max": [
        0.99945068359375,
        0.998260498046875
      ],
      "min": [
        0.013900969177484512,
        0.0023346543312072754
      ],
      "type": "VEC2"
    },
    {
      "bufferView": 1,
      "componentType": 5125,
      "count": 3132,
      "type": "SCALAR"
    },
    {
      "bufferView": 3,
      "byteOffset": 16080,
      "componentType": 5126,
      "count": 4605,
      "max": [
        32.29517364501953,
        70.17764282226563,
        30.15247344970703
      ],
      "min": [
        -32.29518127441406,
        9.613238334655762,
        -6.8597412109375
      ],
      "type": "VEC3"
    },
    {
      "bufferView": 3,
      "byteOffset": 71340,
      "componentType": 5126,
      "count": 4605,
      "max": [
        0.9987436532974243,
        0.9931913614273071,
        0.9998487234115601
      ],
      "min": [
        -0.9997168183326721,
        -0.9637972116470337,
        -0.9966327548027039
      ],
      "type": "VEC3"
    },
    {
      "bufferView": 4,
      "byteOffset": 10720,
      "componentType": 5126,
      "count": 4605,
      "max": [
        0.9999409317970276,
        0.9854230284690857,
        0.995060920715332,
        1.0
      ],
      "min": [
        -0.9999518394470215,
        -0.9999920725822449,
        -0.999724805355072,
        -1.0
      ],
      "type": "VEC4"
    },
    {
      "bufferView": 2,
      "byteOffset": 5360,
      "componentType": 5126,
      "count": 4605,
      "max": [
        1.0,
        0.9928436279296875
      ],
      "min": [
        -0.0004963874816894531,
        0.0087890625
      ],
      "type": "VEC2"
    },
    {
      "bufferView": 1,
      "byteOffset": 12528,
      "componentType": 5125,
      "count": 9828,
      "type": "SCALAR"
    },
    {
      "bufferView": 3,
      "byteOffset": 126600,
      "componentType": 5126,
      "count": 817,
      "max": [
        30.810209274291992,
        68.05998229980469,
        28.095703125
      ],
      "min": [
        -30.712127685546875,
        26.68610382080078,
        -3.6436233520507813
      ],
      "type": "VEC3"
    },
    {
      "bufferView": 3,
      "byteOffset": 136404,
      "componentType": 5126,
      "count": 817,
      "max": [
        0.8927664756774902,
        0.937622606754303,
        0.997583270072937
      ],
      "min": [
        -0.8894767165184021,
        -0.39499759674072266,
        -0.9803991317749023
      ],
      "type": "VEC3"
    },
    {
      "bufferView": 4,
      "byteOffset": 84400,
      "componentType": 5126,
      "count": 817,
      "max": [
        0.9957000017166138,
        0.6147054433822632,
        0.9257823824882507,
        1.0
      ],
      "min": [
        -0.9866570234298706,
        -0.2754639685153961,
        -0.9193764925003052,
        1.0
      ],
      "type": "VEC4"
    },
    {
      "bufferView": 2,
      "byteOffset": 42200,
      "componentType": 5126,
      "count": 817,
      "max": [
        0.9965208768844604,
        1.0103152990341187
      ],
      "min": [
        -0.00952177494764328,
        0.01687675714492798
      ],
      "type": "VEC2"
    },
    {
      "bufferView": 1,
      "byteOffset": 51840,
      "componentType": 5125,
      "count": 1869,
      "type": "SCALAR"
    },
    {
      "bufferView": 5,
      "componentType": 5126,
      "count": 2,
      "max": [
        1.0,
        0.0,
        0.0,
        0.0,
        0.0,
        1.0,
        6.123234262925839e-17,
        0.0,
        0.0,
        0.0,
        1.0,
        0.0,
        0.0,
        0.0,
        0.0,
        1.0
      ],
      "min": [
        1.0,
        0.0,
        0.0,
        0.0,
        0.0,
        1.0,
        0.0,
        0.0,
        0.0,
        -6.123234262925839e-17,
        1.0,
        0.0,
        0.0,
        0.0,
        0.0,
        1.0
      ],
      "type": "MAT4"
    },
    {
      "bufferView": 0,
      "componentType": 5123,
      "count": 670,
      "type": "VEC4"
    },
    {
      "bufferView": 4,
      "byteOffset": 97472,
      "componentType": 5126,
      "count": 670,
      "max": [
        1.0,
        0.0,
        0.0,
        0.0
      ],
      "min": [
        1.0,
        0.0,
        0.0,
        0.0
      ],
      "type": "VEC4"
    },
    {
      "bufferView": 0,
      "byteOffset": 5360,
      "componentType": 5123,
      "count": 4605,
      "type": "VEC4"
    },
    {
      "bufferView": 4,
      "byteOffset": 108192,
      "componentType": 5126,
      "count": 4605,
      "max": [
        1.0,
        0.0,
        0.0,
        0.0
      ],
      "min": [
        1.0,
        0.0,
        0.0,
        0.0
      ],
      "type": "VEC4"
    },
    {
      "bufferView": 0,
      "byteOffset": 42200,
      "componentType": 5123,
      "count": 817,
      "type": "VEC4"
    },
    {
      "bufferView": 4,
      "byteOffset": 181872,
      "componentType": 5126,
      "count": 817,
      "max": [
        1.0,
        0.0,
        0.0,
        0.0
      ],
      "min": [
        1.0,
        0.0,
        0.0,
        0.0
      ],
      "type": "VEC4"
    }
  ],
  "asset": {
    "extras": {
      "author": "StinkySkunk12 (https://sketchfab.com/Bearfnf)",
      "license": "SKETCHFAB Standard (https://sketchfab.com/licenses)",
      "source": "https://sketchfab.com/3d-models/animal-crossing-new-horizons-big-tree-35f693ec41794fcdba36d677d86c970a",
      "title": "Animal Crossing New Horizons Big Tree"
    },
    "generator": "Sketchfab-17.15.0",
    "version": "2.0"
  },
  "bufferViews": [
    {
      "buffer": 0,
      "byteLength": 48736,
      "byteStride": 8,
      "name": "shortBufferViews",
      "target": 34962
    },
    {
      "buffer": 0,
      "byteLength": 59316,
      "byteOffset": 48736,
      "name": "floatBufferViews",
      "target": 34963
    },
    {
      "buffer": 0,
      "byteLength": 48736,
      "byteOffset": 108052,
      "byteStride": 8,
      "name": "floatBufferViews",
      "target": 34962
    },
    {
      "buffer": 0,
      "byteLength": 146208,
      "byteOffset": 156788,
      "byteStride": 12,
      "name": "floatBufferViews",
      "target": 34962
    },
    {
      "buffer": 0,
      "byteLength": 194944,
      "byteOffset": 302996,
      "byteStride": 16,
      "name": "floatBufferViews",
      "target": 34962
    },
    {
      "buffer": 0,
      "byteLength": 128,
      "byteOffset": 497940,
      "name": "floatBufferViews"
    }
  ],
  "buffers": [
    {
      "byteLength": 498068,
      "uri": "scene.bin"
    }
  ],
  "images": [
    {
      "uri": "textures/mTreeHugeTrunk_baseColor.png"
    },
    {
      "uri": "textures/mTreeHugeTrunk_metallicRoughness.png"
    },
    {
      "uri": "textures/mTreeHugeTrunk_normal.png"
    },
    {
      "uri": "textures/mTreeHugeLeaf_baseColor.png"
    },
    {
      "uri": "textures/mTreeHugeLeaf_metallicRoughness.png"
    },
    {
      "uri": "textures/mTreeHugeLeaf_normal.png"
    },
    {
      "uri": "textures/mIdrTreeOakLeafBack_baseColor.png"
    },
    {
      "uri": "textures/mIdrTreeOakLeafBack_metallicRoughness.png"
    },
    {
      "uri": "textures/mIdrTreeOakLeafBack_normal.png"
    }
  ],
  "materials": [
    {
      "doubleSided": true,
      "name": "mTreeHugeTrunk",
      "normalTexture": {
        "index": 2
      },
      "occlusionTexture": {
        "index": 1
      },
      "pbrMetallicRoughness": {
        "baseColorTexture": {
          "index": 0
        },
        "metallicFactor": 0.0,
        "metallicRoughnessTexture": {
          "index": 1
        }
      }
    },
    {
      "alphaMode": "BLEND",
      "doubleSided": true,
      "name": "mTreeHugeLeaf",
      "normalTexture": {
        "index": 5
      },
      "occlusionTexture": {
        "index": 4
      },
      "pbrMetallicRoughness": {
        "baseColorTexture": {
          "index": 3
        },
        "metallicFactor": 0.0,
        "metallicRoughnessTexture": {
          "index": 4
        }
      }
    },
    {
      "alphaMode": "BLEND",
      "doubleSided": true,
      "name": "mIdrTreeOakLeafBack",
      "normalTexture": {
        "index": 8
      },
      "occlusionTexture": {
        "index": 7
      },
      "pbrMetallicRoughness": {
        "baseColorTexture": {
          "index": 6
        },
        "metallicFactor": 0.0,
        "metallicRoughnessTexture": {
          "index": 7
        }
      }
    }
  ],
  "meshes": [
    {
      "name": "BigTreeTrunk__mTreeHugeTrunk_mTreeHugeTrunk_0",
      "primitives": [
        {
          "attributes": {
            "JOINTS_0": 16,
            "NORMAL": 1,
            "POSITION": 0,
            "TANGENT": 2,
            "TEXCOORD_0": 3,
            "TEXCOORD_1": 3,
            "TEXCOORD_2": 3,
            "WEIGHTS_0": 17
          },
          "indices": 4,
          "material": 0,
          "mode": 4
        }
      ]
    },
    {
      "name": "Ivy010__mTreeHugeLeaf_mTreeHugeLeaf_0",
      "primitives": [
        {
          "attributes": {
            "JOINTS_0": 18,
            "NORMAL": 6,
            "POSITION": 5,
            "TANGENT": 7,
            "TEXCOORD_0": 8,
            "TEXCOORD_1": 8,
            "TEXCOORD_2": 8,
            "WEIGHTS_0": 19
          },
          "indices": 9,
          "material": 1,
          "mode": 4
        }
      ]
    },
    {
      "name": "LB014__mIdrTreeOakLeafBack_mIdrTreeOakLeafBack_0",
      "primitives": [
        {
          "attributes": {
            "JOINTS_0": 20,
            "NORMAL": 11,
            "POSITION": 10,
            "TANGENT": 12,
            "TEXCOORD_0": 13,
            "TEXCOORD_1": 13,
            "TEXCOORD_2": 13,
            "WEIGHTS_0": 21
          },
          "indices": 14,
          "material": 2,
          "mode": 4
        }
      ]
    }
  ],
  "nodes": [
    {
      "children": [
        1
      ],
      "matrix": [
        1.0,
        0.0,
        0.0,
        0.0,
        0.0,
        2.220446049250313e-16,
        -1.0,
        0.0,
        0.0,
        1.0,
        2.220446049250313e-16,
        0.0,
        0.0,
        0.0,
        0.0,
        1.0
      ],
      "name": "Sketchfab_model"
    },
    {
      "children": [
        2
      ],
      "matrix": [
        0.02539999969303608,
        0.0,
        0.0,
        0.0,
        0.0,
        0.0,
        0.02539999969303608,
        0.0,
        0.0,
        -0.02539999969303608,
        0.0,
        0.0,
        0.0,
        0.0,
        0.0,
        1.0
      ],
      "name": "IdrObjTreeHuge00.fbx"
    },
    {
      "children": [
        3
      ],
      "name": "RootNode"
    },
    {
      "children": [
        4,
        6,
        8,
        10,
        5,
        7,
        9
      ],
      "name": "Object_3"
    },
    {
      "children": [
        11
      ],
      "name": "_rootJoint"
    },
    {
      "matrix": [
        1.0,
        0.0,
        0.0,
        0.0,
        0.0,
        6.123233995736766e-17,
        -1.0,
        0.0,
        0.0,
        1.0,
        6.123233995736766e-17,
        0.0,
        0.0,
        0.0,
        0.0,
        1.0
      ],
      "name": "Object_5"
    },
    {
      "mesh": 0,
      "name": "Object_6",
      "skin": 0
    },
    {
      "matrix": [
        1.0,
        0.0,
        0.0,
        0.0,
        0.0,
        6.123233995736766e-17,
        -1.0,
        0.0,
        0.0,
        1.0,
        6.123233995736766e-17,
        0.0,
        0.0,
        0.0,
        0.0,
        1.0
      ],
      "name": "Object_7"
    },
    {
      "mesh": 1,
      "name": "Object_8",
      "skin": 0
    },
    {
      "matrix": [
        1.0,
        0.0,
        0.0,
        0.0,
        0.0,
        6.123233995736766e-17,
        -1.0,
        0.0,
        0.0,
        1.0,
        6.123233995736766e-17,
        0.0,
        0.0,
        0.0,
        0.0,
        1.0
      ],
      "name": "Object_9"
    },
    {
      "mesh": 2,
      "name": "Object_10",
      "skin": 0
    },
    {
      "name": "Root_00"
    }
  ],
  "samplers": [
    {
      "magFilter": 9729,
      "minFilter": 9987,
      "wrapS": 10497,
      "wrapT": 10497
    }
  ],
  "scene": 0,
  "scenes": [
    {
      "name": "Sketchfab_Scene",
      "nodes": [
        0
      ]
    }
  ],
  "skins": [
    {
      "inverseBindMatrices": 15,
      "joints": [
        4,
        11
      ],
      "skeleton": 4
    }
  ],
  "textures": [
    {
      "sampler": 0,
      "source": 0
    },
    {
      "sampler": 0,
      "source": 1
    },
    {
      "sampler": 0,
      "source": 2
    },
    {
      "sampler": 0,
      "source": 3
    },
    {
      "sampler": 0,
      "source": 4
    },
    {
      "sampler": 0,
      "source": 5
    },
    {
      "sampler": 0,
      "source": 6
    },
    {
      "sampler": 0,
      "source": 7
    },
    {
      "sampler": 0,
      "source": 8
    }
  ]
}
